<mxfile host="app.diagrams.net" modified="2022-11-04T02:27:54.146Z" agent="5.0 (Windows NT 10.0; Win64; x64) AppleWebKit/537.36 (KHTML, like Gecko) Chrome/106.0.0.0 Safari/537.36 Edg/106.0.1370.52" etag="GRtWHh828KX6iJBkQurI" version="20.3.6" type="github">
  <diagram id="CijbQ7-lpK851BlzRIMb" name="Page-1">
    <mxGraphModel dx="3090" dy="796" grid="0" gridSize="10" guides="1" tooltips="1" connect="1" arrows="1" fold="1" page="1" pageScale="1" pageWidth="850" pageHeight="1100" math="0" shadow="0">
      <root>
        <mxCell id="0" />
        <mxCell id="1" parent="0" />
        <mxCell id="F_2HRzWwkVnxhR09PAmx-12" value="" style="rounded=0;whiteSpace=wrap;html=1;fillColor=#f5f5f5;strokeColor=#666666;fontColor=#333333;" parent="1" vertex="1">
          <mxGeometry x="-1646" y="86" width="1237" height="585" as="geometry" />
        </mxCell>
        <mxCell id="F_2HRzWwkVnxhR09PAmx-134" value="" style="rounded=0;whiteSpace=wrap;html=1;fontSize=12;" parent="1" vertex="1">
          <mxGeometry x="-1646" y="86" width="1056" height="281" as="geometry" />
        </mxCell>
        <mxCell id="F_2HRzWwkVnxhR09PAmx-75" value="&lt;br&gt;" style="rounded=0;whiteSpace=wrap;html=1;fontSize=14;fillColor=#f5f5f5;fontColor=#333333;strokeColor=#666666;" parent="1" vertex="1">
          <mxGeometry x="-1144" y="452" width="343" height="185" as="geometry" />
        </mxCell>
        <mxCell id="F_2HRzWwkVnxhR09PAmx-11" value="" style="rounded=0;whiteSpace=wrap;html=1;fillColor=#008a00;strokeColor=#005700;fontColor=#ffffff;" parent="1" vertex="1">
          <mxGeometry x="-1646" y="21" width="1236" height="65" as="geometry" />
        </mxCell>
        <mxCell id="Z_EchdoVRlVN9s3k6G9K-1" value="ALB" style="rounded=0;whiteSpace=wrap;html=1;" parent="1" vertex="1">
          <mxGeometry x="-36" y="189" width="120" height="60" as="geometry" />
        </mxCell>
        <mxCell id="Z_EchdoVRlVN9s3k6G9K-2" value="" style="whiteSpace=wrap;html=1;aspect=fixed;" parent="1" vertex="1">
          <mxGeometry x="-258" y="307" width="226" height="226" as="geometry" />
        </mxCell>
        <mxCell id="Z_EchdoVRlVN9s3k6G9K-3" value="" style="whiteSpace=wrap;html=1;aspect=fixed;" parent="1" vertex="1">
          <mxGeometry x="73" y="305.25" width="229.5" height="229.5" as="geometry" />
        </mxCell>
        <mxCell id="Z_EchdoVRlVN9s3k6G9K-6" value="pod1" style="rounded=1;whiteSpace=wrap;html=1;" parent="1" vertex="1">
          <mxGeometry x="-183" y="465" width="120" height="60" as="geometry" />
        </mxCell>
        <mxCell id="Z_EchdoVRlVN9s3k6G9K-7" value="Pod2" style="rounded=1;whiteSpace=wrap;html=1;" parent="1" vertex="1">
          <mxGeometry x="127.75" y="449" width="120" height="60" as="geometry" />
        </mxCell>
        <mxCell id="Z_EchdoVRlVN9s3k6G9K-8" value="client" style="ellipse;whiteSpace=wrap;html=1;" parent="1" vertex="1">
          <mxGeometry x="-40" y="53" width="120" height="80" as="geometry" />
        </mxCell>
        <mxCell id="Z_EchdoVRlVN9s3k6G9K-10" value="" style="endArrow=classic;html=1;rounded=0;exitX=0.5;exitY=1;exitDx=0;exitDy=0;" parent="1" source="Z_EchdoVRlVN9s3k6G9K-8" edge="1">
          <mxGeometry width="50" height="50" relative="1" as="geometry">
            <mxPoint x="134" y="162" as="sourcePoint" />
            <mxPoint x="21" y="187" as="targetPoint" />
          </mxGeometry>
        </mxCell>
        <mxCell id="Z_EchdoVRlVN9s3k6G9K-11" value="" style="endArrow=classic;html=1;rounded=0;entryX=0.5;entryY=0;entryDx=0;entryDy=0;exitX=0.5;exitY=1;exitDx=0;exitDy=0;" parent="1" source="Z_EchdoVRlVN9s3k6G9K-1" target="Z_EchdoVRlVN9s3k6G9K-2" edge="1">
          <mxGeometry width="50" height="50" relative="1" as="geometry">
            <mxPoint x="3" y="257" as="sourcePoint" />
            <mxPoint x="-101" y="205" as="targetPoint" />
          </mxGeometry>
        </mxCell>
        <mxCell id="Z_EchdoVRlVN9s3k6G9K-12" value="" style="endArrow=classic;html=1;rounded=0;exitX=0.996;exitY=0.066;exitDx=0;exitDy=0;exitPerimeter=0;" parent="1" source="Z_EchdoVRlVN9s3k6G9K-2" edge="1">
          <mxGeometry width="50" height="50" relative="1" as="geometry">
            <mxPoint x="-144" y="315" as="sourcePoint" />
            <mxPoint x="71" y="323" as="targetPoint" />
          </mxGeometry>
        </mxCell>
        <mxCell id="Z_EchdoVRlVN9s3k6G9K-16" value="Node1" style="text;html=1;strokeColor=none;fillColor=none;align=center;verticalAlign=middle;whiteSpace=wrap;rounded=0;" parent="1" vertex="1">
          <mxGeometry x="-256" y="497" width="60" height="30" as="geometry" />
        </mxCell>
        <mxCell id="Z_EchdoVRlVN9s3k6G9K-17" value="Node2" style="text;html=1;strokeColor=none;fillColor=none;align=center;verticalAlign=middle;whiteSpace=wrap;rounded=0;" parent="1" vertex="1">
          <mxGeometry x="76" y="497" width="60" height="30" as="geometry" />
        </mxCell>
        <mxCell id="Z_EchdoVRlVN9s3k6G9K-18" value="The LB only knows about nodes" style="text;html=1;strokeColor=none;fillColor=none;align=center;verticalAlign=middle;whiteSpace=wrap;rounded=0;" parent="1" vertex="1">
          <mxGeometry x="123" y="207" width="217" height="30" as="geometry" />
        </mxCell>
        <mxCell id="Z_EchdoVRlVN9s3k6G9K-19" value="src: client&lt;br&gt;dst: LB" style="text;html=1;strokeColor=none;fillColor=none;align=center;verticalAlign=middle;whiteSpace=wrap;rounded=0;" parent="1" vertex="1">
          <mxGeometry x="-158" y="262" width="60" height="30" as="geometry" />
        </mxCell>
        <mxCell id="Z_EchdoVRlVN9s3k6G9K-21" value="src: node1&lt;br&gt;dst: pod2" style="text;html=1;strokeColor=none;fillColor=none;align=center;verticalAlign=middle;whiteSpace=wrap;rounded=0;" parent="1" vertex="1">
          <mxGeometry x="-10" y="324" width="60" height="30" as="geometry" />
        </mxCell>
        <mxCell id="Z_EchdoVRlVN9s3k6G9K-22" value="" style="endArrow=classic;html=1;rounded=0;exitX=0.5;exitY=0;exitDx=0;exitDy=0;entryX=0.317;entryY=0.033;entryDx=0;entryDy=0;entryPerimeter=0;" parent="1" source="Z_EchdoVRlVN9s3k6G9K-2" target="Z_EchdoVRlVN9s3k6G9K-6" edge="1">
          <mxGeometry width="50" height="50" relative="1" as="geometry">
            <mxPoint x="-206" y="243" as="sourcePoint" />
            <mxPoint x="-134" y="468" as="targetPoint" />
          </mxGeometry>
        </mxCell>
        <mxCell id="Z_EchdoVRlVN9s3k6G9K-23" value="Local&lt;br&gt;src: client&lt;br&gt;dst: pod1" style="text;html=1;strokeColor=none;fillColor=none;align=center;verticalAlign=middle;whiteSpace=wrap;rounded=0;" parent="1" vertex="1">
          <mxGeometry x="-248" y="333" width="60" height="30" as="geometry" />
        </mxCell>
        <mxCell id="Z_EchdoVRlVN9s3k6G9K-24" value="" style="endArrow=classic;html=1;rounded=0;exitX=0.686;exitY=0.004;exitDx=0;exitDy=0;entryX=0.75;entryY=1;entryDx=0;entryDy=0;exitPerimeter=0;" parent="1" source="Z_EchdoVRlVN9s3k6G9K-2" target="Z_EchdoVRlVN9s3k6G9K-1" edge="1">
          <mxGeometry width="50" height="50" relative="1" as="geometry">
            <mxPoint x="112" y="284" as="sourcePoint" />
            <mxPoint x="162" y="234" as="targetPoint" />
          </mxGeometry>
        </mxCell>
        <mxCell id="Z_EchdoVRlVN9s3k6G9K-25" value="src: LB&lt;br&gt;dst: client" style="text;html=1;strokeColor=none;fillColor=none;align=center;verticalAlign=middle;whiteSpace=wrap;rounded=0;" parent="1" vertex="1">
          <mxGeometry x="-30" y="275.25" width="60" height="30" as="geometry" />
        </mxCell>
        <mxCell id="Z_EchdoVRlVN9s3k6G9K-26" value="" style="endArrow=classic;html=1;rounded=0;entryX=0.673;entryY=0;entryDx=0;entryDy=0;entryPerimeter=0;" parent="1" target="Z_EchdoVRlVN9s3k6G9K-2" edge="1">
          <mxGeometry width="50" height="50" relative="1" as="geometry">
            <mxPoint x="-106" y="468" as="sourcePoint" />
            <mxPoint x="-412" y="295" as="targetPoint" />
          </mxGeometry>
        </mxCell>
        <mxCell id="Z_EchdoVRlVN9s3k6G9K-27" value="src: pod1&lt;br&gt;dst: client" style="text;html=1;strokeColor=none;fillColor=none;align=center;verticalAlign=middle;whiteSpace=wrap;rounded=0;" parent="1" vertex="1">
          <mxGeometry x="-96" y="415" width="60" height="30" as="geometry" />
        </mxCell>
        <mxCell id="Z_EchdoVRlVN9s3k6G9K-28" value="" style="verticalLabelPosition=bottom;verticalAlign=top;html=1;shape=mxgraph.basic.x" parent="1" vertex="1">
          <mxGeometry x="-174" y="363" width="58" height="62" as="geometry" />
        </mxCell>
        <mxCell id="Z_EchdoVRlVN9s3k6G9K-29" value="" style="endArrow=classic;html=1;rounded=0;entryX=1;entryY=0.25;entryDx=0;entryDy=0;exitX=0;exitY=0.25;exitDx=0;exitDy=0;" parent="1" source="Z_EchdoVRlVN9s3k6G9K-3" target="Z_EchdoVRlVN9s3k6G9K-2" edge="1">
          <mxGeometry width="50" height="50" relative="1" as="geometry">
            <mxPoint x="-7" y="450" as="sourcePoint" />
            <mxPoint x="43" y="400" as="targetPoint" />
          </mxGeometry>
        </mxCell>
        <mxCell id="Z_EchdoVRlVN9s3k6G9K-30" value="src: pod2&lt;br&gt;dst: node1" style="text;html=1;strokeColor=none;fillColor=none;align=center;verticalAlign=middle;whiteSpace=wrap;rounded=0;" parent="1" vertex="1">
          <mxGeometry x="-6" y="383" width="60" height="30" as="geometry" />
        </mxCell>
        <mxCell id="C84hKkyBin1j4fco6GKL-23" value="" style="shape=image;verticalLabelPosition=bottom;labelBackgroundColor=default;verticalAlign=top;aspect=fixed;imageAspect=0;image=data:image/png,iVBORw0KGgoAAAANSUhEUgAAAD4AAABACAYAAABC6cT1AAAXnElEQVRoBe2aB3RVxdbHz70JoSOd0BJaepSekESqKFKlqiAqD0F674KAnwoKWOlFQUBqKAktvffeSO8hhfTek9+3zrn3hoAUAd97rPV9WWuvPbPnJDm/+e+ZM2fmCPwf/RH+j3Lz/+D/aeUL0tOJ8fQgwtmZtMgI6qpL/qO38B9XPC8lBctNG9mg05t5LTSYrSFnfqd27JkyiFTHFVBwnbqK9H97J/zHwMsLCnD9+Ue+6tubxTKBBWoC8zXU+FRDzhw1gWmCwMIuAtGH5dR7aVEXOoP61APUFwdTX1v2j3fEvx28tqqK8CuW7B9mwjp1OWtEa6bBymZNWNpUnc+bqksd8ImGnBmCnPV9ZRT8KVBpKVB1VaDKujU1zibUhm2gLuMm9eUZ/0gn/FvBU729uDBrJttbtWCzhjqbWzRnU/OmbGjelLXNNVjdrAkrmjVhcVN1FjRVY56GnNkyOY7L1Kg8r07JadHUKD0tUHZaoOKsOpXXe1Pj/gE1MYepzw+nvrb8hTri3wKen5CA7apV7OnckR0a6uxo2VyC39qyBV+0bM7mFs3Y2KIZ68UOaKbBqmZNWNZUnUVN1flUpsbRUWqUn1Sj6Lg6RceU/rjo1Sg+JlByRKD0mED5H22ptBpGte9Gau/ZUf8cE+Q/Cl6ek4Pfnj0c0dNlV1MNdrVqybdtWvF161Z81aolO1q14MuWzdnasjlblPCi+uuaaTSk/+dq6vwyUI3iQ+oUHlCnYL+a5AsPiF5Z3q9GwQE1CvbLKPxFoPgXgZJDalRcNqU2+fbfyoB/BFwcxzEXLnDBwoKfWrTgx9at2df2Nfa0ac13bVqzq3Vrvmndiv9p1ZKdrVpK6m9r2ZwvWjRTqN+8Keuba0jqL1dvwoH+6hT8qE7+D2oK26f0PyhjDXVFPG+fGqLl7xEo3t+GmljLZ8K/NHimhwd3ps/gSNu2HGjdmv3t2vFru3b83LYtP7R9jb2vvcb3bVqzu03rx6jfokH9TWIGNG/K6iYaHHpDnbzdauTuUiP32yeYqk3lVdd9LVD4a0/q8uOfCv/C4EWxcXivXMWfWtqcaNuO4x07crRDRw536MDB9u2lDhDhfxI74DWxA9oo1G+jVL+1Uv2WLVCorxj765o05YixBrk71cjeoUb2dpXJHy43bmtc3q5GzjaBctdv/lnwyuxsIvf9gJWBEWfatOV0x86c6tSZ3zt24rcOnTjWoSNHOnTgUPv2HGjfvkH9H197jX2S+ooO+La1OPZbKsZ+S8XY3yZOeHI1DuvKyN6qRtYW0eRKr8b9LQoTY2L54fZGsY0CxacmQn39E+H/tuK1FZWknb+Ak8UILNt34mLHLlzorMm5zpqc7dyF0506c6pjZ37r2InjHR90wMH2HST1f2nX7hH12yjSXxz7LZqzXaMJX7dry7HRY/D5cg7Zm9XI3Cgna6MamRvEssKylDExLtkG0cvJ3KC4VoqtFyg8ZEF9bdXLgVfl5hI8fyG3NLtj1bkr17v24Kpmdy5rduNil66c76zJn501OdOpC3906sxJsQOU6h/t0IHD7RXprxr7ovp7W7Vid1MNvmvVkiP9+2O3cQNJrq5Ul5VTHWND1loZmevkClur9lcvxtbKyVT5dWpkiNeLsTUChfvN/wJeXV1NQUEBqampz347q6uqImzREm6168Stbj252a0nN7r1xKprD65pdueKZncuaXbjQueuCvU7KdQ/2bGTlP4nOnTkWIcOUvofFCe+li35pVUrjuvqcGv+fGKuX6M8N/chZSrDrclcJSNjlVxpag/Kq5VllVdds1pOhmhifaVA4S/mUF9DZWUlmZmZxMbGEhkZSXx8POnp6c8Gv3/rDvZde2LTTYs73bW53U2roQOsu/bAqmt3SX1LzW6KDugipn+XRup34rd27Tn+WltOaffi1syZRPz+O0UpKQ/BNq5UhFmTsVxG+nL5M0yN9OVqpK9QXSfW5aQvFbj//VDiYiIl2OTkZPLy8iguLqa0tJSSkpJng0euXINdp67Y9+iFbY9e2Ijw3R/A35DgVeqr4LvyZ/uO0uR3TrMbN8e8RcjeveSGhlFfU9OY8bHlilBrMpbIuLdErrClctKV5Qa/VNWmpmhT1ZfISV8skPntELIz0yVIEVaEbmxPndzEmwycMh0HzZ449OyNfY/eSvhejdTXklK/Qf0u3bDs0Jnbg4cStHkLma5u1JQ933q6IsSa9IUCaZ/LG+yesqzyjdseLd9bIJCzexjFhfkPwf5tcHF8B747GaeuWjj27COZCG/3kPra3OqmpRj7mt0RMyB825eU37v3WDX/TrAi2Jp78wXSPpOR+pmctMeYGFfZX9r/JZD9jSnFBYr0bgysKj9VcRE8aPxknLtq46zVFyclvEMPUf1e2HZXpP6d7lpS+t/o2IW7W7b+HbanXlMeZE3apwKp82SkzpM3WEqjshh/tN4Q+0Tg/lcvCR4y/j3cuvXCVbsfLlp9G3VAb8QOUKivLU1+jsb9KXvKpPVU2kaN5YHWpM4VSJkrI3munJSPn9M+EsjaYUrRiyteTciEqbh37427tg5u2v1w1eqngNcSU7839j2V8Jo98Zsyjbrq6gaEqooaKkqrqKt9/AqqoqSSyrIH16t+sTzAmpTZAsmzZSTPkT+w2XJSxPrsRrHG7aryhwJZX4rguS86xqsJmfw+7j118Oyli4cKXlsB79wo9e00exI8e660TKwsqyLCOR6bo954Xw3D9ogvUR7JlBVWSGz3E/NwOxeEr1UE9sf98LwURnZyAXU1dVJ7eYAVybMEkt6XkfS+/AkmtjVub1SeKZD5hSlF+S8BHjx1Du69jPDoY4Rnbz08euk0qO+ipUh/cew7dNUiZM7H0o1nxGTjZRlKlGci7peCObHKiiNLr3L1e2dqqmtJDs0gxD6GxOB7WO525sDCS5xcd5Pk0EwFuL8VydMFkmbISJwhlyxJ6VX1RKlNhhhXmKIstidNE8jc9LLg0+fh1ncQHjqD8Oj7Op69DfDspfMX9Z26aROqBM9KyCXcKY4Y32Q8LoVwct0Njiy/wtltd6iurCE/o4horyQJ/Or3LhxaasnR5deI90uTwMv8rEh6TyBhqkyyxKlyVJbQUJaRKLWLbWJZdY2MxCkCGRtE8Bee1asJmrUQV10z3A2G4a43BI9+AxTq93qgvjjxOXfTJuyjT6Qbz4rPJdw5njj/1Abww0stOfPFbQV4eiGxPskkhqQjgh9cYillRJxfqvT7Jd7XSJgokDBJRvxkGQmT5CRIXqzLpXiC0sdPkinaxLryGvF309e+jOLV1QR9sBQXg5G4G4/E3dAcdz0TPHQGKtXXl8a+OPG5du9NxEefSjeek5KP65lA/KwicL8YzO9rb3B+hx1Bd6Kpr68n1jcFjwvBRHkmcWW3C8dXXcf2iA8FGSWUlFcQdWk/ieMF4ifIHjE58RNEU8bHP65dRvy7AvdWvyz4nFW4GL+D2xtjcXt9NO6Gb+KuPwwP3cF49uuPZx9DCd6zuzah739MQVYxpfnlZCfl43s1nLtuiUS6J1FaUEFJXjlF2aUU3i8hxjuFUIdYQh3iyYjLobyokrT4DIKCosi0PU3S2wLx7wjEvSMjbpzsgR8nV9TFmGTyRm3K2NsC91a+JHjA3PU495+E66CJuA4Yh9vrb+FuNAJ3A1H9IXjoDJDgbwychOXc73E5F4T9b77YHPYhKSSDqopq6ZHmfTUcm8PeeF+J4PoeN4LtYqUOqK+rJ9oziat7Hbi07w6We12x+fY8fu8PJ2asBnFvyYgdKyNW9I/ak+KjBdKWmrzErF5dQ8AnW3AaNAOXIdNwHTQZ1wHjcRXVNx6Fu6EF7vqmuOsO4sLgjwjc9itR3sncPuTJwc8vc2TZVULsYqUsuOuWII153+t3ObHaisNLrmD1gxul+RV43wjB46YfLhf8OLfTlkNLr3J0lTW+EwcQN1IgdrSM2FEyYkbLiBH9KLEubyirYqp47AiB1MUi+ItObtU1+P9rB05DZ+M87ENcTGbiMuQ9XAeq1B+Du9Fw3A3MuDxoNgFbfyXSM0kCP7TEksNLr+B/I5KS/DLiA1OlsS2C/7bGGnGys9ztRGbKfdyt/bjrFdcAfmTZFY6stMJ7whBi3xSIHi4jeoRM4cXycBkxSpPalDFVPNpCIOXzlwX/7Bsch83D2eJTnM3m4GzyPq5DpivVf1cx9o1HcWnIJwRtP0iUl1LxxZYcWmQpgRfnlkrg8QGpqMDFjjm30wZ/z0CCHCKI9ktsAD+87AqHVt3Ca/xQYswFoi1kz2dmAikLXxLcb+FuHCwW4jRiIc5vzsPZfC4uovpDZ+A6WKG+W/+3uWQyjztrjuN/8y4393twcsNN3M6FkJ9ZTFFOKW5/BuF9JQwvy3BOrr3FxV32OF31JDsrGw/LIJzP+GH7uxd/7rDjjzWXuDV7EeEj2yOq998B/3wPDsOX4DRqKU4jF+E0/DOl+rNxMZmlGPsDJ+H6+tt4fLxFekQlhaaTm1ZInmjpRRJ4WVEF0Z7J0jhPicgiwCuY6OB47iXcJyczT1I8wCaCCO9kUq6eJc5ceDG1xez4RxRf/CMOI1fgOGYljqOW4TRyMU7DleqbzcXF9ANJfZf+E4lcqnglLS8sx+dqGHbHvHE7H8SFnQ64nw8hIz5Hes6He0Vz7Wd7vK6EcH2fK1e+cyLEKYa87HzKa2rIcbighH4Btf8pcN8lP2M/ag2OY9fgOGYVTqOX4zRqCU4jPsf5zfk4m3+C87DZOA+aRviynRJYZlw2wbbRxAWk4nE5hN/XWiOO6fM7bMm4l4m3gz8hTlFEesdzeZcjhxZf5tjy60R4xFNWU02O3X8dvBbfZfuxH7Meh7c34DB2LY5vrcJxzAqcVOqPWCClvtPQDwlb8a0ELq7Vwx6zVj+1+QbBgSEkR6cR7BhJhGcclrscpRn+2IprRLjFvULgyw9hN3YLDuM24/DORhzfXo/jWwr1HSX1l0rqO5l9StjqPRK4uBITV2XiLC6+pIiKH15iiQh+PzOb5Mh7hDhHcdc7XgI/uPiytFaPcH+VwFccxe6dbTi8K9oXOLyzSQmvVH/0ChxHLcXxzQWErf0J6pEWLM5/+ON4yl8a42e/sOXSHltC3CIpLSslzDWG24fc8bYKxXKXE39ut8HrWig5GXmUVla9Gqnus+o37N7dif3EndhP2I7Du1txGLdFof7YdcqxvxKHEUsIXf+r9BIiyi5uRsT5pZEWeZ+06CzCw8MpKVVs8RYVFZN09x7hbrFE+yeSnZ5Labliv7ukovIVAV99CtsJ32A/+WvsJ32Fgwg/fpsE7yil/gYcx66VZv7Q9QcR196P/iQmJUqnF+JGvmqXs6S0hNKyEkRfXPJgz/vVAV97BttJ32E/ZTf2k7/FfuL/YD9hBw7jRfW/kMa+49sbsB+9mrCtJ/5yQllUVER0dLS0sa+Cfpp/dcDXncN2yj7spu7F7r3vsZ+yS6H+xIfVdxiznqQz9g+JLb57R0VFkZv75L2vRzvhlQH33nARm6k/YTf9J+ym7sPuvT0K9Sd906C+3Vtb8J7/IxVZ+Q+B5+fnExcXJ51XPQr4pPqrA77xMjbT9mM7cz92M37GbtoPSvW/w06EH/8VAauPUxT98MlJY7Ubj+0nAavirwR4fW0dvl9ac2fGYWxnHcJ25gHsZvyC3bSfsJuyF48FR0i54kNNqWLbuLHc4jl0TEzMc6ktwr8S4CJIgmUId6Ydw2bWUWxmHsZm6q84zT1K9HFnyjILGrM+VI6JjSVHPJoVTyqfYiXisW0jK62qJsf+4n93rS6S1JRXE3nCB5dF53FdcJaQH+wojMl6CFKsiA+xurIy6krLKMzMIjoomKKs+xRkZFKQmfWIZZKfqbSMTPIyMhSWnkFedi4Z1qf+i+B1tVBbA3W10pl2WXoBJffyqK2upJ5a6uprqKuvlTqgLjGVyk27KZ2+kKKp88meMJeMcbPJGP8RaRPmkDxpDgmTPyJmykdETplD2HuzCZryIX5TPsBryvu4Tp6Jw8Tp3B4/lSvjpnB79GBinnfzofH1ZgJJ84dQlPfkp8njT0srK6jes5TqzdOp/mIW1ZumUX1mN7cSlvJboBknAy0kbx21gJrcHCpnLKa0z5sU640iX2c4Of0syOozjLReQ0nua0J8P1OidU0J1zUlWN8EP/2heOoNwVlvMPZ6g7il05+r/Yw518eAYz11udCvy0uDJ/xrEIW5OQ0LJtXkqfKPBa+vKKX0M3NKxmtSMqkHJeM6U/7NPI4HmrPFRmCbrSD5o0GmVNo6UqY7ihKjsRQZvkW+wSiy9YaTqWNBmo4ZSXpmxOubE21oToShOcHGZvgZDcPTyBQXIxPsjIZyy2AQV/UGcE7HmOO9Dbmo1/WlweP+NZjc7KwXAF80kuLJWhRP7UPxxB6U717Ab0EjJegddgr44yHDKbe+/TC4vgg+ggwdC1IlcHPiDMyJMjQn3EgB7qsEdzYywd5wSAP4nzrGHOttwIWXBI8ZJhC1chw5ec/5RYRCcQuKx3eleFJPisd1eaD4HaXidwSO+g2hKDGO4tEfUqYzUlI8z2CkpHiGjvlfwMOMzAkyNkME9zA2RQS3MxrCTYOBXNHrz1kdY472MuCC7sspHmMmEHH0a3KLHrwDqFJc5R+f6pUV1OxdTs3mmdRs/YCaTdOpPr2bm3HLORFgwe+BIzgR8CZWUYsoKC0k/spN8iZ+SonBGPL1RjwD3Bxf44fBbxgMwlIE72fMkV76nNfVfOFUjzEVCJ87gIhAf/ILC58v1Stq61nuX8ks9yo+8KiS/J6IcuoSNlEbNpXa8OmSr4vbQHVlGQkpKYR6ehG+5VsyTSaS29ecjL5mpIiprm9OrIE5kYbmqBT3MRqGu7EpTkYm2BoO4Yb+QC7r9edMPyMO99LnnM5zgosbk8MEYk0EImbp4WN1kcTkFMQXJJXCj/rHKl5cXU/3a8UIfxQhnClC+KOYic7F4D8U7ghgIyi8z0Coq6SsrJyklGSu37mN11UropdtJuP1MaT1MSFRTwS3INLQQgIPNDZDAjcSwYdiYzgEa4OBXNbtz+m+RhzS1uO8bmfFQULjR9SjZRXsMIGYEepETtUiaOvHeNjcIOxuFDk5T57RxU54LHhJdT19rhchnC5AOFuAcLqQaa7FEGChgLZVwvuaSuDiw1z8Yz4+PoSGh+Hp44P/6fPEfLiQJMM3idU15a6hOaHG5gQYm+FtPAw3Y1McJfDBWOsP5KLuG/zR14gDWnpcN+zwV3AlqJjKsWYC0W+3IfzjQQRtn4fPqV/wtL2Fh7cPoWFh0peMT1P7qeBa14oQTonQBQinCpniUgT+po8oPrgBPDs7m6SkJOkLwoSEBAJCQvDw8MD/4DEiJ80mWn8YoYbDCDA2/wv4df0BXNB9g5N9DTmkrYP34GbEigcJZsoUNhWIGdmEu1O1CV41Ef/92/G8dh4PN1c8fP3xCQgkJDQM8f8+S2lVyj9W8dKaesY6laN/qxzD2+Xo3qxgmX8p3J0N3nrgY6jwYe9DneIL4cTERLKysqQNB7G379+/j7he9wsJxtPJGf+v9xAyejKB+iZ4G5niamSKg9FQ7hgO5rr+QC7ovM6J3oZYG3QkVkxfc4Goce0Jn2dC4NeL8Dl7GHf7O5KqXgFBBASHcDcyEvH/ZohL3rw8Cp8ymamAVf6x4OK6u6i6nvyqegqqFF7sDGqLoSYfagoUXqwrf8QNB/H9W/WHRS/eiHhTd+/exdvfH4+bt/BZswVv0zG46Q7CQW8gt3UHcK2vMed763PjDW3C3utD8OpJ+B3Yiaf1JdxdXfH08cPXP4DQ0FDpjS8tLQ0xw8Q3wGeldOP7aVx+LLgK5u/6uro66WPZJ92E2CHip9Kh4eF4+fnifskS93VbcJ7xEXaTZnFn7nzsv9yC9xlRVRvcfXzxDggkIDhY6jRxCIlfIIuqPul/NIb6O+V/BLyiokJS4lkbDuKNixAh4eH4BATg5eWFp4cH3j4++AQG4h8cQmh4hLRrI6oqjtfnSd+/A6y65n8BUWmIKfVUVdIAAAAASUVORK5CYII=;" parent="1" vertex="1">
          <mxGeometry x="-1378.88" y="168" width="42.1" height="43.46" as="geometry" />
        </mxCell>
        <mxCell id="C84hKkyBin1j4fco6GKL-24" value="Griffin D2 Metadata" style="text;html=1;strokeColor=none;fillColor=none;align=center;verticalAlign=middle;whiteSpace=wrap;rounded=0;fontSize=12;" parent="1" vertex="1">
          <mxGeometry x="-1330.1400000000003" y="177.69" width="114" height="30" as="geometry" />
        </mxCell>
        <mxCell id="C84hKkyBin1j4fco6GKL-28" value="" style="sketch=0;pointerEvents=1;shadow=0;dashed=0;html=1;strokeColor=none;fillColor=#505050;labelPosition=center;verticalLabelPosition=bottom;verticalAlign=top;outlineConnect=0;align=center;shape=mxgraph.office.users.tenant_admin;fontSize=12;" parent="1" vertex="1">
          <mxGeometry x="-1610.75" y="125" width="56" height="58" as="geometry" />
        </mxCell>
        <mxCell id="F_2HRzWwkVnxhR09PAmx-9" value="Dialup PM" style="text;html=1;strokeColor=none;fillColor=none;align=center;verticalAlign=middle;whiteSpace=wrap;rounded=0;fontSize=12;" parent="1" vertex="1">
          <mxGeometry x="-1555.75" y="139" width="114" height="30" as="geometry" />
        </mxCell>
        <mxCell id="F_2HRzWwkVnxhR09PAmx-14" value="" style="aspect=fixed;html=1;points=[];align=center;image;fontSize=12;image=img/lib/azure2/management_governance/User_Privacy.svg;" parent="1" vertex="1">
          <mxGeometry x="-1610.75" y="277.5" width="48" height="51" as="geometry" />
        </mxCell>
        <mxCell id="F_2HRzWwkVnxhR09PAmx-16" value="Service Team" style="text;html=1;strokeColor=none;fillColor=none;align=center;verticalAlign=middle;whiteSpace=wrap;rounded=0;fontSize=12;" parent="1" vertex="1">
          <mxGeometry x="-1558.75" y="294.00000000000006" width="114" height="30" as="geometry" />
        </mxCell>
        <mxCell id="F_2HRzWwkVnxhR09PAmx-17" value="" style="shape=image;verticalLabelPosition=bottom;labelBackgroundColor=default;verticalAlign=top;aspect=fixed;imageAspect=0;image=data:image/png,iVBORw0KGgoAAAANSUhEUgAAADUAAAAqCAYAAAATZhM+AAAJr0lEQVRoge2ZW2xU1RrHf/sye2b2zNQpTDudqdhqYkFAMUYUkCqU4IUEE20zVjEkQEnw9gCPPAAxJj5A0vBgfEB8sIkaW9HYBwnRgtTEtrEFxZYOl5ZWnFIYmHvnvvd5ILNP5pRDy2HKyTHne5rsNVnr+61vrfX9v7WEn376Sd+1axd/B1NVlebmZsT/tiNzYfJcdKrruvFbEIS5GOK2VvJIaZoGgMlkQpIkcrlcEeS9sJJGKp/PU1ZWxiOPPML9999PMplkcHCQP//8E03TEMV7s9pLBqXrOk6nk6amJhoaGpg3bx7ZbJbx8XHa2tro7e1F1/VZL8dcLmdEWZZlTCbTrH0pGZQgCNTX19PU1ERlZaXhvNfrRZIkLly4wOXLl7FarbeNmCAIpNNpqqurqaurw2KxcP78efx+PxaLZVaTUhIoTdO47777eOyxx3C5XEUDi6LIokWL2LhxIz09PQQCAa5cuYIgCAiCgCiKiKKIIAjIskwmk2Hx4sVs2bKFZcuWoSgKo6OjfP311/zwww/k8/kZwUoWKUVRcDgctxywrKyMbdu24fP5CAaDhEIhotEoiUSCUCjExMQE4+PjnD59Go/Hw1tvvcWqVauMJed0OvF6vQQCAXp7e7HZbHMPJQgC4XCYc+fO8dxzz2GxWIraI5EIx44dw2azUV1djcfj4cEHH0RRFFRVRZIkUqkUoVAIURTxer1Fe0gURVwuF42NjYyMjBCJRG67x0oGlclkuHz5MqFQCJfLhSzLaJpGOp0mnU7T3d1NX18foigiSRKCIGCxWFiyZAkLFy7E7XZjt9vxer23jLYkSXg8Hux2O6FQ6Lb+lAQqn89TVVXFmjVriMVi/Pbbb6xYsYJgMEhnZycNDQ288847OBwOjh8/TjweRxAE4vE4J0+epLu72zggVq5cyd69e6muri4aI5PJ4Pf7iUQiSJJ0W3/uOnFomobVauXll19myZIlHDlyhNbWVq5evcrFixf54IMPOHjwINeuXePNN99k3bp1qKpaFDG4mRIkSWJsbIyenh5isZiRtDOZDIODgxw9epR4PI4s3z4Wdx0pXddZt24dL730Et3d3Rw7dgxN08jlcqiqislkor+/n0QiQUtLC83Nzei6zo8//kg2my1aarIsEwwGaWtrIxaL8corr5DNZvn555/p7OxkaGhoRiC4i0gJgkAsFmPRokX4fD7j2L1x4wa6rpPJZFBVFafTiSRJnDt3jk8//ZTJyUk2bdrE2rVrDUn1r/2Ojo7S2dlJMBikt7eXDz/8kNOnTxvtJYUqOJtKpYjFYrhcLt5++21UVaWjo4OxsTFEUUTXdVKpFF6vl4cffphsNoskSfj9fg4fPkwwGKSlpYX169czNTU1TRtKkkRVVRUWi4XJyUkmJiaMXDYbmzVUIek9+eSTvPjiiyxevJhdu3axdOlSOjo66OvrA27OZC6XY2JiAlmWkSTJcFoURYaHh/n444+5fv06O3fuZMOGDUSj0WlJ1W63I8sygUAAq9U6WzeBWe4pTdPweDw0Nzezdu1aHA4H4XCY6upqvvzyS9rb28nlcsiyjK7raJpGPB7H4XDgcrnw+/1GX6IoMjQ0xP79+9m3bx979+6loqKCjo4OstksJpMJXdfxeDwoikIqlbrj8mXGSOm6jt1up7GxEZ/Px4IFC3A6ndTW1iLLMgMDA8RisaINrGka0WgUURQpLy8nn88X9SnLMsPDw+zZs4dAIMB7773Hli1bUFWVfD6PrutYrVaSySTHjx/HZrPdUfkyI5SmaVRWVvLss89OUwqCILBp0yYeffRRY4Z1XSeZTPLrr78ap5umaUZbwTlFURgeHmb37t34/X6ampp4/fXXKSsrQ9M0HA4HmqYZKuNObMblV5D+/05v1dXVsWPHDkZGRhgZGSGdTjM1NcUDDzyAJElUVFRgNpuL9lYBTlEUhoaGeP/992lpaWHDhg1YLBb++OMPQ0atWLGCM2fO3FE9NiNUQQJFIhG8Xu+09kgkgs1mY/Xq1axZswa4eajYbDYURaGhoQGz2UwulyObzZJMJolEIty4cYPx8XHy+TyBQIBDhw6xdetWmpqa8Pl82Gw2RFFkz549HDp0iKNHj84abEYoURQJBoN0dXXhdruZN28ecHO28/k84XCYL774gnA4jMPhQFEUFEVh+fLlVFVV4fF4eOqpp7BarSiKgslkIpfLMTU1RSAQMLRhIpFAlmXMZjOqqhrj19bW8u677zI2NsbAwEBR238MJQgCiUSC7777Dl3XeeKJJ1AUhVAoRCwWY9WqVdTX1/PJJ5/Q39+PLMtGxfvCCy/Q09PDRx99hMvlwm63U1NTg9frxeVy4XA4KCsrw2Qy4XA4cLvdmM3maT643W4WLlxIT09PaaAKYMFgkM8//5wjR44YuSidTvPGG2/w2muvYTabOXz4MGNjY5hMJqLRqLHczp8/z/Xr1xEEgTNnziDLspHDCsf/888/z/bt25k/f/4txy+ki9nYrLVfQUWnUqmi721tbei6zubNm1FVldbWVi5dumTklpqaGqqrq0kmkwZE4TCZmpqipqaGxsZGVq9ejcfjueXYoVCIwcHBW0bxrqAKYP+aCPP5PJ999hmJRIIdO3awc+dO9u3bRzgcZnR01JA70WjUqLFSqRTl5eVs3bqVhoYG6urqGB8f58CBA9TU1PDqq68ayywej3PgwAFOnTo1a2Vx1ypdFEXy+TxfffUVANu3b2f37t20t7dTXl5OZWUl27Zto62tjatXr+J2u9m4cSP19fUsWLCAcDjM/v376erqYnJyElVVOXXqFEuXLiWRSHDixAkuXbqE2Ww2dOWcQwHGsvrmm29QFIXNmzezfPly5s+fjyiK+Hw+HnroIQYGBnjmmWeoqKjgr7/+4uDBg3R1dZFIJEin05jNZrLZLCdOnOCXX34hn8+TTCZRFKUoz90TKLgZsVwuR3d3N+vXr2fZsmVGm6IoPP3009TW1nL27Fm+//57urq6CIVChma0Wq1GoQg3C0PAUDF3IpNKekMrCAKPP/74LTe8JEmMjIzQ2tpKIBAw/q8oSpF8Ktjd3OaW/IEglUqRy+Vu2RaPxwmHw8A/nZ6Le/aSXm4LgkB/fz9nz56dBhaNRrl48SK5XG7OX0JKDhUKhWhvb2dgYMAAi0ajdHZ28u233067l5gLm5P3qb6+Pq5du8bKlSsxm81cuXKFkydPEo/HZ7zeKoWVHKpwP37hwgV+//13o3RRVfWOpM7d2Jy9JJpMJpxOZ9G3e/X4NidQBbvXL4gF+1s+ZP8f6n/F/pZQ/wDhGVlm1CysEwAAAABJRU5ErkJggg==;" parent="1" vertex="1">
          <mxGeometry x="-1381.1" y="227" width="50.47" height="40" as="geometry" />
        </mxCell>
        <mxCell id="F_2HRzWwkVnxhR09PAmx-18" value="Service Tree" style="text;html=1;strokeColor=none;fillColor=none;align=center;verticalAlign=middle;whiteSpace=wrap;rounded=0;fontSize=12;" parent="1" vertex="1">
          <mxGeometry x="-1326.2999999999997" y="234.5" width="91.35" height="30" as="geometry" />
        </mxCell>
        <mxCell id="F_2HRzWwkVnxhR09PAmx-20" value="Deployed Resource Percentage Automation" style="text;html=1;strokeColor=none;fillColor=none;align=center;verticalAlign=middle;whiteSpace=wrap;rounded=0;" parent="1" vertex="1">
          <mxGeometry x="-1056.8" y="598" width="260" height="30" as="geometry" />
        </mxCell>
        <mxCell id="F_2HRzWwkVnxhR09PAmx-21" value="" style="shape=image;html=1;verticalAlign=top;verticalLabelPosition=bottom;labelBackgroundColor=#ffffff;imageAspect=0;aspect=fixed;image=https://cdn3.iconfinder.com/data/icons/document-icons-2/30/647708-excel-128.png;dashed=1;fontSize=18;strokeColor=#FF9933;strokeWidth=2;fillColor=none;" parent="1" vertex="1">
          <mxGeometry x="-1381.86" y="113.00000000000006" width="52" height="52" as="geometry" />
        </mxCell>
        <mxCell id="F_2HRzWwkVnxhR09PAmx-22" value="" style="shape=image;verticalLabelPosition=bottom;labelBackgroundColor=default;verticalAlign=top;aspect=fixed;imageAspect=0;image=data:image/png,iVBORw0KGgoAAAANSUhEUgAAAJ4AAACRCAYAAAAy0wGuAAAfMElEQVR4nO19aXQcZ5X281ZVryW1Wqu1S15kx7ItL/KSjO04YYCQxFlIMEkI5GMwzJCcYcIy2wmBMxw4hJkwgWEYmJCECXwfkD0HQuIQzCT5bCcBMzGJLSu2ZUuWJWuz5Fa3eu+qmh/Vpa5u9VJrV0vWc07p6nZVV92qfuq+973vRiKRiIBFLKLIoKw2YBGXJhaJtwhLwFhtQCnCH05gZDqCsUAMY/4oLgQTmAzGMRXm4AtzAACnjYC1U2BtNFg7hTIHjWqWwaYWD1bUsRbfQemDXOox3h8HpvHa6Ys4fC6IExd5DEcYxHS+jzQ41DFxNLDAcq8NG5rc2L22Fu3VLoOsnv+45Ij32KEhvPieHyd8HMZiNsRBF+3atXQU2+pp3LzGiz3dDUW7biliwRPPF4rj0TeG8esTARz125AoItHywSYk0FGWwDXL3bj3qlZUsjarTSoqFiTxhi5G8PDBYew7HcKZsB1cidehaAjocEfx4dVl+OyOZnjdC5+EC4p4bw9O4+9fHMRhn9NqU3RhXXkEf7mlCndta7LaFNOwIIj3+slJ3Peb8+iZcWLe34wMTbYovnSFF3u3N1ttiuGY18R74d0xfO2/x3EqPL89XCEsYaL4my0e/PVVrVabYhjmJfGOnPNj7zNncTqysAmXiRo6in/5QA1u3VhvtSm6Ma+IF4px+KsnTuDXwzT4Eq8wmAcB2ypj+MkdK9BQMX9fvHlDvMffHMb9r08jICz8Gp8S2JHAZ9fa8fUbllttiiaUPPFOjc/gk0/249jM/H27zUQDE8HPbmtFd2uF1aaoQkkT7+ED53DfwWBJJH1p8FjmiqG5nIIgAAN+HgPR0ngZGPC4b4sTX3p/m9WmKEbJEu+OnxzHS+dLo1hd7Y7giY+vmNPW2jMcwKeeGcB7odIg4JU1UbzwmbVWm6EIJUe8YV8EH/rxKQyWiDdptEXQ+7fr8h6z8TtHcaZEati1dATP39mGdU0eq03Ji5KqGr7w7hg2//BMyZAOAL59zZKCx3z3+sYiWKIME5wTV//0PH7+h/NWm5IXJUO8v33+FD7+oh8hlEbxCgBVdAzXr6sreNyuldWopqNFsEgZ4qBx9++C+MbLZ6w2JSdKgnjX/+gYHnnPaivmYn2V8mPXVJpnh1Y8eITDp37Wa7UZWWE58T708DEcnHRYbUZW/PmKcsXHXrWszERLtOPZQQZX/8dRcHxJhfLWEu/mR3vw5lRpkg4Abu8uHN9JuG1T6TZjve134orvvWu1GWmwjHg3PtqDVyfsio5dbz+N9fbTJluUjjomitpy5S9Fc6UTXipmokX6cCLsxu4fHbPajFlYQrw9/3UcryskXZfjNN5qvwdvtd+DLkfxyLehRv2jWe0treIsEwcmHfjSsyetNgOABcS76//24pVR5TXXdvsYYANgE7DeVTziXbNSfR7syvbSH1322EmC7782aLUZxSXe1/edwS+H1I3g6mL7AIYHGAFtzlGTLEsHgYA7NquP2W5dX2uCNcZCAPCVN8J44d0xS+0oGvF+994FPPSnhPovUgCxQfR6RbK20RYD61A/xHFVfRnKSenGeRJ4QmHvrydxaixomQ1F+SlHp6P4+PNj4EFUf3d31SEINA/QPG6oOmSCdXOxsU77Y1nl4Q20xDxEiQ3XPn4a0QRnyfWLQrwPPnYSISirTMjhZWawoaJP9HgMsL6iD20O84vba1d5NX93R6vbQEvMxQTvwk2P9FhybdOJ9xc/68VZjW2vN1QfhMAIAC0AjACBEXCl908GW5gOCjz2dGvPyX14HsR5crzpc+GbFjStmUq8x986j+cHGRBCQADV8v7lPwVhBMAmgDDidv/yn2g+nxLZ6ojBwWh/LBtaPGBJInVeknGdXHqmLLTfQPmvR+J49cSk5nvWAtOI5wvF8Y+vTSc1QbX8ROPLaCs7D4EWPZ7AiF6vlR3BJxr25f0+0agTCOheon8eo5XlXOq8Qvr5c+qZMsd+guw6SdORoeffzxMae58fRjFb1Uwj3j1P9yEGGyhCVG+VtiC+3PE4wADEJoiSSUob8GDn91FpC+b8PtGoE0Kwu1NFz4AcuKLFOee8RkmSQ0/fkGdftv2Aj7jxd8+dMOCXVwZTiHd0OIBXRmiQZCVWqssqkQTAk5u+jLbyETG2owSA5sX/k7XbCmcAL2+7N1kcpb6nV2cEHjdvUN4+mws3ra1JnddoacB9ZtUB/L9TwMCFkO77VwJTiPeZZ88ChNb0Rj/c9S3srD0C0BA3Bqn/ZVtX5Sk83PWtAm+2io0iaHfFQanP+MzB5cu8cIAzzevpkbm8PkUIeIrB//lFn/4HoACGE+/xN4dxOuICknEFIHk0Ie3tytQrmAD+c+03cWfri6KXIzxA8eL/2TYi4M6WF/GLDffBy8xkxC6yeEbIeLNz6QKwpcG4Tqgr2Lh479IzUCqhcr9KHTl0CcfDLJ48bH7vZUOJF4lz+NpBf+otowioZDyRiknm6m2uMezbei/ubN0nWkQh3cMxSBa1SV3aTxHsbjyAl7beiy5PX874JVNSOfQb1uiP7yRsa3LMnledJOk6lX8/pVCnqAw9c79M/+qrU4Y9h1wwlHhffK4PIcE+J3bItbU5RvGDyx7A0e17sK7iVMr9JD2a3LuJhJR9TlLbOs9JHNj2KfzgsgfQ5hwtGNsgi24Hhw921hj2LHavqRavI11PqZRqtDI78+nIOF46JlOXg2R8SDLkNHHjJ28M5bgzY2DYKLNglMOq7/UjAQqEAIKArLLFNorrqw7huuoD2FF1BEimSVIeLfk/hdzlgUAADgAvk4nUdnBqI168sBP7fNsxGKsHIBkwe9tz9BXOEA789RojHsUsWh88hTihxetBmFeygZrB21/MP7pODwybfPvbvzsLjlBzYouPlf0Gt3tfwY7yI+LVJKIxAgQIEGM9UYrIlNkg3ydFjMLsY9vuOYLt7j/hm43fT5HRvwFP+D+IXwSuSSe0AIAI2NaovkmvENpcMfQl413pOqLFAoRMXXZfufRiyhGexf7jE3h/pzktMYYVtc+eiGatRX2s/BXscL2TVuZlxmKY3ZC+5cJsGUpmj5POI50Xyd3SuXa438HHyl4BRWXP/d20rtqoRzGL7nq7LMbKqFFm6nlqnFbVgP9pv3nt4oYQ7zfHL2CSE9tjM2ORX8xcgzfCXfBzyU6SguidBAFicSckvYHkxQTZlhfy76bOlTovkv8Dfo7FG+EuPOy/NWUbSUmHkMDODuMqFhKu66xMe4eUxr6lsg3Ey/CH/otGPxbxWRgR4+1+pBfv+F3pXkoKGTLQYh/F9vIjuLbqAK6tPZBW9Iq1VSGVOM7l9QrEeC9f2ImXJnfiUGAjzsUKN/hf5g7jt59drehe/X4/PB5lvZM5XsDy75wBR4yd+0UKKdTqWuTlFUE8tdfY2BcwIMYbD0Rx1O/ArKmCAEJS0cKsnqxdnIsuwZOxa/HEhQ+hoj+Iry/7Lm5v3AeBBwgRAF5GOApzyScA4GVbUhd44KnRa/EvA5/CUKwBQvK68utLdhHIdEHA5U3K4zufzwen0wm7vfB3aIqgyR7Fubgbc99EfTpRrWdKcf/cz9Pl/0wx4AUYkliXQ3dR+8Ar5wCKSssFpWKU/HqAK8PnT96PLb9/Fsf9HaInkzZetgkkSTC5nvxMIOgJdGDrW8/g3lP3YzjWMDcXli+WoQhu6lKeRgkGgwgGlffc3biEyZFXzK1TGvW8+cA5stB+USYYBx75/8aP0dBNvFfPJdJjA4IsupD6PIscijTgliP/gaeGrxO9GIeUnN1Ius4D4AmeGr4Ot7z9AwxFGwpeJ5tdLiGOzW3K5paLRCLgOE4V8a5Z5VUdW0GjbpZ84qjUy8g46CpqT4wFMQ1XqvaYBpI7RpP2yxDgyvH53q8ABPho00siseRPV55lEQjAA0+dvx6f770/jVipGIXk0NPlijLl40AkwoVCyhvSr1lTC/q/z4InUrFGkreRX88v5c9OyX59+mC8DFMzMVSVGZdy0uXxfnZ4LK2tM01C4ecZ+heOfwVvXtiY7t0SyPB+wJuTG/GF4/enHndG/nCOnkP+WYvy3tES8WKxGGIxZYN67AxBPROe8w4W0vOjUH0wc78+XSAUvr1/QJlpCqHL4x08FwMh7jkv26yDSn5OSNLzELkHyq1/+tiD+E33J9DsHkWyx2MKPMFQpB57jz4IiqRCaCHT483xgNmlmmkq5EVsMBhUVMEAgHW1NMbG1FGr1PDmkLGj5zR7vHCMw1DUmTWGglyXkQ8Z+3Pp/kQZHur/NBBHKk0ST24J4KEzn0aAK0v/vgbpRhTLapUNzpHiOwlq4jxp8p9ixGOFJNGon48Zu/KkZuI99T9jAEVnbQUwYnt2YjeGQ41ipSJBkpULguFQI56d2G3INVaWKx+KmEk0NXHeTRvqQQOWtUCk9wbSpguMHa8bOC5DM/FePhFAqnkAqWYCZOiF9qfpSNMfGtwLIQ4ICSLKOMFDg3uzH69Bbm9T/hZnEk9tnFdNhWTVCPMk0agrkb86ahzxNMd4vX4GVFp5STIi5IyyN9f+OXrK0e+f3gXCfRNAqta3f3qXmMwkqeO0ytu6lTeAZyta1cR5nVUEB6eQvAt54tZYHXn19G/J9yNjfzZ5ZDSu6F6VQBPxBiZDiBCx391sEC9JGKcHuDIcD3RgtesUAOB4uAN+riz9uAwpoZBehggavcpqtMFgMC2+k39eWalsKtBH71yl6LhM9I4EcLDPh8f/NIMp6J38UV/r6FjCuLmpNRW1vz/jL1pMst9/JUiCAhIU9vt3GRbDrKxQ/iPkqkioifO0YnVDOT6zswWHPrcaV3hDyXvJjBeN0qVeyNl1MA6cGA0Ycl+aiNczFkrLcqiRSmtRs9/jCIQEZnN5BMZsO3XEdxLUxHlG4MefWIU6Iv7w+gON7BIF9MP9xrRiaCpqT08lQFGONIOMurFMvTe6EkhQAAQMx8V2WL0gAPZ0F57NXUK+1ImaOM8IfGF7Fe4/lFAdWhiFnlFjZpjS5PFGgsZ5nkLb+US9mM+LE7wX6zDknB6EUa2w+adQvk5NPs8I3LRhCRg+lvfFJVn0XMfKdSXy9KQxFQxNHs/P25MJYlk3I8OkVFkQ9fcSHbjlwn9BAHAi0THbPUfaL6GQLvcBl6mYMrYQsYoR52Wi2RHFYCL//MxaS5hCcixiTKd11WfxheKIE1vSEDNyUcKcz3sTK/BeYgVSeb/UfqU6ZPqVS5VPGVuIeMWO8wBgU4MN8ntK3Wu6boYM8MaEFao93lv90+ltpAZLCWbGMDd26cvfZTummHHeTV3V+NWQ5GlJ8i/JqhstBZsxTWeaPJ5oCEyRUKDnimGUSC9CqGSVzRigNH7z+XyKjjMKm9q8oLnY7HMo9jYR0L98lmqPF4oJqRYLC6E1RulUsfSTUuIFg0GMjIygoaFB+cl1otkRwTlO2+I0UglTSM8lR3zq1gDJBtUeLxgrPGeuGu8l14shdy1Xnv1XU2OdnJxEf38//H6/4u/oweZG5TM2ZG5QqOeSI76IbvtVe7xwnE96vPxRmvrBKJmDT9TqmXLufgIBu9epG1+hBmrHY2SiqalJcRPcDetq8MtknFfIQxktJ2b0V6ZUe7xwXMj4MQttgsLj9G6Fr1NFQnArXEag2Pk5tddc3+oBw0WKWlpI8kJQw7IRGVDt8aIJcVggyWmWkOPzXPvn6lI+T60+Nx+YnidcU53ysIVgBfHU5gRbnFEMJqRapt68gPK8wXRI/xIFqj1eKM7LvIs5UmvfskJy1wpz4jujoDYnuKnBjmx5Sv06suiyHGmuyZRUQLXHs1FEd3up5OfU6nokBB4fWqMsf6d2CKORUJMT/Eh3HX41NGOSJZm/cUovd+qf60m1x6t00zpjMRFadD2yhgrBzih7Yawindprr6hjQSfChj0jpb+Jx6l/Sg7V1K1xM2ktFxKK1TtCK9aqWAbUSuKpjfOaHFEM8W7DyAcFeoXLAo9XW8YkDUkv5wvpKKibi6s6lC/zbiXx1MZ53cl8HqCuFNGzGUE81Weor3CAIlLXmLQoSqduniQCj/d3Kut/x3EcIhH9CVI9CAQCqK5WNl/fLRvr8MJwaPaJSsg1aY8RqFLY5JgPqj1eQ4XD0JhCr1TyhtfSQSid7chKb6fFhuVLWDDxENTnS7XnV6tZ/R0iVHu8lionCJlB/l4M5o2iUjeqStTX1Sq/zflGPABodEpxXv48ppL9UkmRSxcEDu0KB8Hng2qPR1MElCBmrnN7IsEwnSjU873N71s5P+I7CWqL+1Scp7/PHQroTMyY9I2mKNGFOMJELOfNLk6hUM8Fio9h50rl+Tur4zsJwWAQTqey4YQ3rq/FC8NhmX9S399RKapsxnR919SPeYkzY068Et7qGOVEKgVvJ0FtnEfHxOOVvMgkiw4FOgHQ7DGm67smj7eymsHgaHpUVczeEWpkl4plQOcr8QAxzjsvKG8SVFuiSHrnEmMGdWui75Y2FvL2VZSw/MBlymb7BEqLeGqL/c3Nxck2bF2m/HnmgyaP9+erq/HPf5hMehaC9NFh6nQIPMoQQYynEKOl2pL+3ngAQHExdLcry4eVUnwnQU2c9+GNdei7IFsGSub6s6bqZSsbpe3PkdeXPu5qWanInkLQnIJm+SBCFKv57Snjg9jb7cb1XanE7mMHz+O5UwBHSQ87vbYrIZueraitt4cV308peTsJwWBQcSK5ucqFf7utw2SLjINm4jW6OZyJaglRgW5vAN+4sW3OOffuaMSezXHc8/R5TArpKZBco6gydbncUK88w16qxFuo0FxFWVWjjbNbK7OTToLHacOjt7egEqmxC1q96gc6vYrtKsUfuRSLf6OgmXg3rq9WPQPnBk8AX7shN+kkOG0UfnxHK6pIQPMsUzYugs5GZYnjUv6BS/GFMAKaidde4wbLi1lsuachOfQO5zQeuLkw6SQ4bRQeu70FXsGfdh6lW4NDOZGKNTJMCxaJlwXdS+SrxCBjPrqU3uHy47t72lWf32mj8NgdLfAIAdXz965XsQxoKf+4pfxS6IEu4t2+uRqF2knb7T585yPKPV0mnDYKj9zWhHLeP3t+pF0nu379WuWrMVox8Y4alPKLoRW6iNdW40a5MCPOHEXIHNnumMa/f1S9p8sE66BF8iU9n3zGymzSxoXQVqOsB4UVk+6oxUL0erob3rrrs8dYTcw0vrdHu6fLBOug8aOPNqKMF3+EfDXaRqdyIs0Hb+Lz+Ur+5VAL3X2Y79xah4Mvhmd7bwFAI+MzlHQSRPI14S+fGkGYzl1j3ahiGdBSIF5PwAmaovD2JAWapjE8w2MkJD5Nf1TAsYkYKpzn8PNbG7Gj1diFTqyCIQslf+e3Q5gKcwAIWBvwj9e2GmBabvgjCdz99AjCdPYFi39wnQP1Cmd0P3nyZNG8SQQ29Pgd6AtQODwmYCjA45xf3aj8Ha0u7GxzYUdrKpQ4fm4KlMBhqYfCVGBuvCrM/kkfJSv9I46WFWT/pz53Oez4yOVLVdmoBIYQzwoEIgnc/fQoIkw6+Zj4DJ64q1HROWKxGE6ePGmGebM4G3Fi/6gD+88mMKiSZBJq3QTVdqDaKaDGAVQ5BazwCKiwcdhYrXx1Ii3onWGxxwTi6R8uZACCwSBYVvksnYA4qPiHe+px99OjiDKe2TbaJrf18R1N03h9qhy/6hdw6FwEgLKc4upKgkq7gOUeAau8AppdCXSoWBbBaPjitCmkA0qAeJOTkxgZGVE1U5KEWfI9M4YYUw6AoLtZ/TKgRuJsxIkH3rXj6Fj+Dgq1LoL1VQJWVgjYWhtHh6f0Cp6zQQY7TDq3pUXtxYsXMTw8PKtrIR8AXAzG8bnnxhG3leM/b3ApnvHT6PguTjtx0z6C6Wj24m9jDcGWWh4fbIyjwV16RJPDF6exY+Nq085vmcfLJB2AWV0t+SpZG75/Sx2+se88KtnsFY5MmJG/u++PdkxH06dpLbdTuLqRx+3LEmhj9c+yVCycnTHP2wEWebxspJNDq+cz0ga1sNls2PpcelrU46DwD10JXFVv3OJzxYDZ3g6wwOMp+cG1ej41MDq+43kerRUODE6nSOaP8vjyYQrLvW6s8XLoqhKwoYpDg6u0Pd+0oK6ipwVF9XhqvYyZns+M/N3zE7X49luFm7c8DgotLLCinMNyj4DWcmBLdWl4xYEZGrsvN9fbAUX0eFqKNrM8n1nts3e0BPDmsDOZQskNf5RHTxTomZJ3InNgZRWDSruAeieHJS4BzSywsz4BOzE3VychwlNoaVhSlGuZ7vEikQgmJydx8eJFzecw2vMZHd/JYbfbcTRSjceOhnFoUPmYj3xoKqfhtQtYUc6jxiGgtUzAlfUc7JSxhHx7ksFduy4z9Jy5YBrxOI5Df3+/YT17jSTf4OCg6T0+WJbFiXAZfnmGx8+PGn8tQoCVlTZ4bByaXDw21fDYWMWhyqGNjCMRGh/YbH4RK8FUjxeJRNDf3591dWstMIp8vb29htlUCDRNg2VZHJ2247XzwBtDMRwbV7YyDgFmFysEMDvjlTT5eUpKvYIIGstp1Dk4LC3jsLKCx/YlCTgUeMZJqhq7Oou3QIzpRa3RxZpe8kUiEfT19Rlmj1rY7XbwNjcGwg78cVzAW8NxHBuPwh/jkyOOZUSSEQvA7IpKBERGtnzHifsuqyJY6o6iu5rDpuq5se3bk3bctcuY8bJKUZRa7dDQkKHrfekhn9REVyqgaRpOpxNDURf6gzac8gn4/XAUxydiKUJBvecDshO4nqXR6o5hW20Ul9dEi1aLzURRiGd0vAdoJ18x4ju9sNvtYFkWx6dteHeSwulp4PfDUQRjPACSIl4BzzeHmEgncKuH4MOXOXBDpwdl9sxx0OaiaHk8o+M9QBv5ihnfGQmWZTHNO9E7bcPZGQpvjyZwajIxh1ggAJXT42V4zCRxy+0UPrnJjVs7i9fJtKgJZL/fj8HBQUPPqYZ8Vsd3RsJutwN2FqeDLvRepPHOOIfTU2J/P2mtuRQhU54xtX8uMZdXMfjin7FYVqV/OYFCKHpb7cjICCYnJw09p1LymXHtUoFUPPf43TgyweDdsQTGg3yOykoG8TKK7M9d4cb7lpm78LMlnQSMrmwAhcnHcRxOnjw5L4tZLWBZFj54cPiCE6/2JxCKC3M835xKyewadcDdW53YtVT/7O65YFl/PDPI19DQkHV2JY7jMDg4WBIDe6yAx+PB6XAFei7acGAgoXhJsK9e7UZnnTnFrqUdQc0gn8fjAcuys/PK+f1++Hy+S8bT5QNN0+CdVXhttBwHBgs/j846Gl+9Wv8M79lg+WAfM8i3iMJgPEvwZB+L3on8BPz33SxqWWPmPZbD+DOqRHNzM7xe5dOJLcIYJPxjuKN5CDevyl+UHh7WvyhyNlhOPGCRfFYhFothrWsEblvumG8iaE6XLMtHmUlobm6Gy+XC+Pj4YjxWBEQ4CqeitfjtkAuheO5o66xvgRMPAKqrq8GyLIaGhkp2osT5jAhHoT/iQV+wHO9MSIVd/hA/nzfUg5IiHgA4nU4sXboU4+PjCzbZW0z44gz6wx6cC7vx7gX1qZHrVpqTSC454gFitb+hoQEsy2J4eHix6FWBoYgbQcGJwZALfdMMJnV0gl5dS5uWxytJ4knweDxwOp0YHh6+ZJO/uXA26MQM70CAs+NsyImpCKWLZJlw2wju2WbMKj7ZYHkeTymkovdS8X4RjsJYxA6apjAUYRHhKYyF7ZiKGkuwbHDbCL76PhfaveZ1Fpg3xAPEpq+RkZF5n3Aei9gR4SjEweBCXOyKNBYVPwsnCIYCxe0bJ0dnHY27tzpNSRrLMa+IJyEWi2F8fLxkCCh5JwkX4k7EITawSyQLJ4ChmZJIm2aFywZ8cqO5HQPkmJfEkxCLxTA6OmpYj+KzwfSYRk4gABgIOsTeuwSGx1RWoYalcFW7DdeusoE1KXWSDfOOeMG4ICY1ZVZHImH4fD6EwxFEeAoXufQpGMIcwVjYDkJSi/eFEsBwCXsgs7G5icGupTZsabKmfqmbeAM+Hr3jHIJxcbr/fOvHhmICBnwcxNUb09dzzNR7xs1pI7yUsbmJwZYmBpubmaJ6t2zQTPcBH4efHoni+PilUcucj3DbiEi2ZgaddbTlZJNDE/Fe74/jh39YbNIqRXTW0eisY9BpYvLXCKgm3oCPXyRdiaCGpdBZS6O9kkK7t7SJlgnVxPvpkUXSWYHOOhptXhq1LJl3JMsGVcQb8PGLMZ3JaPNSqGUptHkptFfSaE/qCw2qiHf24iLpjIDbRtBeKRKq1k2hs46G207Q7l14BMsFVcQzqzfqQkWbl4LbRrCmjhZJxlJoq6RKqnZpFVQRr7OOAXoW1mJuetBZxwAQRClgNu6a7/FXMaCSeDTcNiBUGtP1morVtSJ5alkKdSxJFoWLxDIKqmu116104JkeZRMLliLavBRYOxHjrCSRpOLvUouzrIRq4n1krR0TQR6vD1jv9qQYCkh5JgliMSj9v+ihSg2a22qfORbDS6diCMX09TEQa3g05K26bd5k8w4RVy6U0gmLHmnhQFcngWBcwB+HEpgI8nM6BchjIgmLxFmEhHnXLWoRCwOL7mcRlmCReIuwBIvEW4Ql+F/wqnzhvRU+AgAAAABJRU5ErkJggg==;" parent="1" vertex="1">
          <mxGeometry x="-1384.83" y="287.3899999999998" width="54" height="49.56" as="geometry" />
        </mxCell>
        <mxCell id="F_2HRzWwkVnxhR09PAmx-23" value="Jarvis Dashboard Configuration" style="text;html=1;strokeColor=none;fillColor=none;align=center;verticalAlign=middle;whiteSpace=wrap;rounded=0;" parent="1" vertex="1">
          <mxGeometry x="-1326.3" y="300" width="102" height="30" as="geometry" />
        </mxCell>
        <mxCell id="F_2HRzWwkVnxhR09PAmx-24" value="Service List" style="text;html=1;strokeColor=none;fillColor=none;align=center;verticalAlign=middle;whiteSpace=wrap;rounded=0;" parent="1" vertex="1">
          <mxGeometry x="-1336.01" y="117.69000000000003" width="115" height="30" as="geometry" />
        </mxCell>
        <mxCell id="F_2HRzWwkVnxhR09PAmx-28" value="" style="strokeWidth=2;html=1;shape=mxgraph.flowchart.database;whiteSpace=wrap;fontSize=18;fillColor=#ffcd28;strokeColor=#d79b00;gradientColor=#ffa500;" parent="1" vertex="1">
          <mxGeometry x="-1382.0700000000002" y="449.06000000000006" width="43" height="45" as="geometry" />
        </mxCell>
        <mxCell id="F_2HRzWwkVnxhR09PAmx-29" value="Geneva Metrics Storage" style="text;html=1;strokeColor=none;fillColor=none;align=center;verticalAlign=middle;whiteSpace=wrap;rounded=0;" parent="1" vertex="1">
          <mxGeometry x="-1332.71" y="459.00000000000006" width="108.41" height="30" as="geometry" />
        </mxCell>
        <mxCell id="F_2HRzWwkVnxhR09PAmx-30" value="" style="aspect=fixed;html=1;points=[];align=center;image;fontSize=12;image=img/lib/azure2/management_governance/Log_Analytics_Workspaces.svg;" parent="1" vertex="1">
          <mxGeometry x="-1381.86" y="565.62" width="51.72" height="51.72" as="geometry" />
        </mxCell>
        <mxCell id="F_2HRzWwkVnxhR09PAmx-31" value="Azure Log analytics" style="text;html=1;strokeColor=none;fillColor=none;align=center;verticalAlign=middle;whiteSpace=wrap;rounded=0;fontSize=12;" parent="1" vertex="1">
          <mxGeometry x="-1319.01" y="586" width="90.76" height="30" as="geometry" />
        </mxCell>
        <mxCell id="F_2HRzWwkVnxhR09PAmx-39" value="" style="verticalLabelPosition=bottom;html=1;verticalAlign=top;align=center;strokeColor=none;fillColor=#00BEF2;shape=mxgraph.azure.storage_blob;" parent="1" vertex="1">
          <mxGeometry x="-752.9999999999998" y="480.0000000000002" width="50" height="45" as="geometry" />
        </mxCell>
        <mxCell id="F_2HRzWwkVnxhR09PAmx-40" value="Azure Storage" style="text;html=1;strokeColor=none;fillColor=none;align=center;verticalAlign=middle;whiteSpace=wrap;rounded=0;" parent="1" vertex="1">
          <mxGeometry x="-715.09" y="489.0000000000002" width="125.09" height="30" as="geometry" />
        </mxCell>
        <mxCell id="F_2HRzWwkVnxhR09PAmx-45" value="" style="shape=image;verticalLabelPosition=bottom;labelBackgroundColor=default;verticalAlign=top;aspect=fixed;imageAspect=0;image=data:image/png,iVBORw0KGgoAAAANSUhEUgAAADIAAAAuCAYAAABqK0pRAAAIvElEQVRoge2a328U1xXHP+femf1hr714/dteY8A4wcQhQEJDUkVtUKpKkdoqkfoSqS996Hv/or70saoqpVJb9YfSpiFplKRAExInJBADBjvgGPxrZ2fuPX24Y2yIwQs4wEO+0s7Ozuzeud97zj3ne44t19+pKS1CAVk7z38lcrtvPziY3l8RtfplEbAGjAU0EFEF7/PP3948W8KWRLwHY6AQKbag679QAQcuhcwJLif0sHBHIgpEFuJYEYHPpyPOXjKIKD1dymBNqVU9xYqiFnBAE9ImOCf4jcRk3S0fOBERKBaVRiJ89qXhz8cLnD5jMBaG+zy7hjx7RhxDfZ4dXdBWUooGrFWMAZ+7nPp1V3woRCILJobz08Lv/lrg0y8tw72eQkGZuyqc+jTGaUxvVRmtew6Me/bvyRjb6YgqnjgGMqAhJImQZeDZYJlttNJtiRgTiCQN+Pis5fjJiH1jGa+92iQ2ysUZy9Q5w7kZy8KicPqMZeqspbsaUe/3DPV56oOeep9nsNvTWVVKsSIqaAppU0hTwt5a43UfrG5LRARElOVlYX5BKJXg8ITne0cyyODg454fN2F+wXBx1vDhF5b/nbHMzBrePmkpFiw9XcrIgGOs7tk74unp8nR0KKUIYgs22mARHwLLvbrfpkRujCVhxbwXIqMYAW2Cbwo+AQx0V5XOimN4xPHsYcO1azAzY7kwK0zPGqbOWd4/HdFWglo1EBrf6dk17OjpVYrtSiFSIg+aR8B7IbR1HpHcOgZcJvhVIWtCkghiII4giqC7XenucYhXDuzxXFmAmauG85ctFy8Ll68YFhaFE59EfPgZVNqUvppnoNcxOuSp9ylDfZ5ym6IujO9cPoUWXG5LIpIPpNxsqbXB0yy8aEjujkIcQX+v0j/geHLC01iBuSvCxTnDJ2cjLswavroqzH5t+eScodbp6e+G3XXHaN0xvtPT2aY0k1tC+P0QaRVrrqAaiBkvkCkYpVIWKiOe4RHPxKRjZVG4viCcn7GcvSicnTGcOmP49wlLb5fy8gspx55NqZQU74XUbR3dto3IRvN7T+4W+cUYimVoLyrtbeDbFFeD3YOeyccMcwvC1WvCiY8i/vux4U9vxlTbleefTikUlGx1a9/aNiJr0PwgEt6tDeeNVSFblKAUopAkK+3Q0eUYGQMfK5N7HZVSzOv/LPLuhxGHJh3Fog+uvYWL3RWRVtzV5IEB1oXm1WvC1DnD7FXDSL/nwLijEEOjAboqGAPlNhiseY5MOt4+5VlaEdIE8MGuWz17SyIaxgpy45bRbvqsEMVQKitaCjdMJiRLwskpw2/+UOTMtOXoUxmlV5rs3+uIC0rSkCBhHPg8ShmjiCh6FzG4JYtkKaw2gsSAsEJ2TUxacGnw4WYKn5+zfDZtiGPYP+YoFZTPzxuOn4yYmbUo8NyBjD27HJ0dQWCulQVpKjSScB6ZdcveFxElWEFE6Kwo9T5HteJRDUSMUZyCd0JkIC4oVxYMf3835vd/i+lsV157uclT+zKsFYqFQLxYVJZXhWYK3DrR7ZYoQtiMWSoUY+XpCUdvlzLc54MbAAuLwpeXLIvLwp66pz7imJsX3vzA8tYHMT01x2O7LPUBTyGGyIZSwKw9YJs1/e0toiGEFmPYPeoYGXahQoyUpVXDe6cjXn+jwNy88MNnMl75EWQOri8LjWY4X1gSVhtgc3kDwV2szXlso6y/o2g0BhpNmJkxXLpiqLYre0Y9SQanpiL+8Z+YqwuC98KhfY4dnZ72EthIKRZCVYnQcnb+VohEEYhVpqcNv/1jkbdORIyNeH75SsLuYU8jheVGWNSlVbi2JHR1hnAruYQxsmHlv2Uym+8RCU0G54UvLkS88V7EqamIuXnHkScsQz2htjBGiaLgKirrc20l7m837hjgnIMrC8JX8wanyuJKSGrNDOI4uB6AFYgeclvojkSE4OflslIuQXsZSqXgMt7f6ZcPHpsSWdNJeku/aqMwfAT6cjfhzl0U1jNuksBKA1y24eYG3OueuFXm3Cs2tcja4MZCRztUOxRjQnauVpTIhjzhfHilLpftd5HoVEAsxAUoxOFZZkMd7+8y0m1es2sQcNYq4zsdLz2X0l6GvTsdRyYdpbKSpHndkdfXYm5elTvxWZufigYCgESKNRL2n959I+K2ruUcqAr1fs/PX2py5AlH7w7P/r2OVKHSBu1lZTURalWlp6rrxPLJOv/NoCCEKGcVvpo1XJwxdHUoQ3VP5mFu3nBtKSQga9kiHLVCRMN+KBeVyQnHxJMZxguxh5WmcHif4yc/yJidF158JmP3TseFS0GSZKmQNEL3xeQJ8oaJ8hrFCpw9b/jL8Rgrwtioo5Eo75yKKBZgfNRTKoUVaSVA3l6i5AfnQutHmqERkGhYpIOPO+r9nkYT+ruVnh7PhcsWaxRrILZCtaK0lcNAqoGJ92GRsGBjWFqBj85Y/vW+ZbkBkRGOHc144VBGuQA+o6W90lphld18zRjoqChdNX/jS8ZCb5dy9CnH1wspg33K9w9l9HYpiyvC0qqQpsLyqrDSCA2FXbscPzsmPDHmuTRnWElguE95/mDG7mFHmgUdp8qWLaGWCqtbB1GFZhL6XMZClgWZ3rvD8+qxJgced1TalCfHQ8lXjJW2khJHoaE3UHNEBmo1OPpsxtHDkCyHPla5HIq1tBG6MarrCuK+iWwGJYRgyaNL4gRroD7gGRhSDFCwSpoIo4Oeg/scHe3K0/szJnZ72mJIr0nIS7nIjCPImoLTfGzZ2hL3TWQN3nOjy6GE1SsWNC/MwrUDjzl+/YsG15eFwR7PzsFQoCVpCLXG5KrZhLDvNBR2d9PUvm8iaw8zJpBpJAKNDfcNdO9QBvqyMNFMaOaF15rva24B3DfHfWBEboXcOOTIJ+mT0FLlRvNue/+Quu1ENoPfJDFuN+6i4fJo4zsijxq+I/KoIZIdP33Yc7hvSGkSWVlZedj/RrIt+D+e7+StKNkJ0wAAAABJRU5ErkJggg==;" parent="1" vertex="1">
          <mxGeometry x="-558.9951177978515" y="239.49663726806648" width="50" height="46" as="geometry" />
        </mxCell>
        <mxCell id="F_2HRzWwkVnxhR09PAmx-46" value="PowerBI" style="text;html=1;strokeColor=none;fillColor=none;align=center;verticalAlign=middle;whiteSpace=wrap;rounded=0;" parent="1" vertex="1">
          <mxGeometry x="-491" y="247.5" width="60" height="30" as="geometry" />
        </mxCell>
        <mxCell id="F_2HRzWwkVnxhR09PAmx-49" value="Metadata Inspection Automation" style="text;html=1;strokeColor=none;fillColor=none;align=center;verticalAlign=middle;whiteSpace=wrap;rounded=0;" parent="1" vertex="1">
          <mxGeometry x="-1046.2" y="257.39" width="191" height="30" as="geometry" />
        </mxCell>
        <mxCell id="F_2HRzWwkVnxhR09PAmx-51" value="Data Query" style="text;html=1;strokeColor=none;fillColor=none;align=center;verticalAlign=middle;whiteSpace=wrap;rounded=0;" parent="1" vertex="1">
          <mxGeometry x="-1061" y="386.31" width="55" height="30" as="geometry" />
        </mxCell>
        <mxCell id="F_2HRzWwkVnxhR09PAmx-52" value="Data Processing" style="text;html=1;strokeColor=none;fillColor=none;align=center;verticalAlign=middle;whiteSpace=wrap;rounded=0;" parent="1" vertex="1">
          <mxGeometry x="-967.9999999999999" y="388.0000000000001" width="54.91" height="30" as="geometry" />
        </mxCell>
        <mxCell id="F_2HRzWwkVnxhR09PAmx-54" value="Data Publishing" style="text;html=1;strokeColor=none;fillColor=none;align=center;verticalAlign=middle;whiteSpace=wrap;rounded=0;" parent="1" vertex="1">
          <mxGeometry x="-865.25" y="386.31" width="54.91" height="30" as="geometry" />
        </mxCell>
        <mxCell id="F_2HRzWwkVnxhR09PAmx-57" value="" style="shape=flexArrow;endArrow=classic;html=1;rounded=0;fontSize=14;fillColor=#eeeeee;strokeColor=#36393d;" parent="1" edge="1">
          <mxGeometry width="50" height="50" relative="1" as="geometry">
            <mxPoint x="-1428" y="57" as="sourcePoint" />
            <mxPoint x="-1390" y="57" as="targetPoint" />
          </mxGeometry>
        </mxCell>
        <mxCell id="F_2HRzWwkVnxhR09PAmx-58" value="" style="shape=flexArrow;endArrow=classic;html=1;rounded=0;fontSize=14;fillColor=#dae8fc;strokeColor=#6c8ebf;" parent="1" edge="1">
          <mxGeometry width="50" height="50" relative="1" as="geometry">
            <mxPoint x="-907" y="400.89" as="sourcePoint" />
            <mxPoint x="-869" y="400.89" as="targetPoint" />
          </mxGeometry>
        </mxCell>
        <mxCell id="F_2HRzWwkVnxhR09PAmx-59" value="" style="shape=flexArrow;endArrow=classic;html=1;rounded=0;fontSize=14;fillColor=#dae8fc;strokeColor=#6c8ebf;" parent="1" edge="1">
          <mxGeometry width="50" height="50" relative="1" as="geometry">
            <mxPoint x="-1006.2" y="400.8900000000002" as="sourcePoint" />
            <mxPoint x="-968.2" y="400.8900000000002" as="targetPoint" />
          </mxGeometry>
        </mxCell>
        <mxCell id="F_2HRzWwkVnxhR09PAmx-61" value="" style="shape=curlyBracket;whiteSpace=wrap;html=1;rounded=1;flipH=1;fontSize=14;rotation=90;fillColor=#dae8fc;strokeColor=#6c8ebf;" parent="1" vertex="1">
          <mxGeometry x="-991.8" y="288.81" width="20" height="285" as="geometry" />
        </mxCell>
        <mxCell id="F_2HRzWwkVnxhR09PAmx-67" value="Service Quality Automation" style="text;html=1;strokeColor=none;fillColor=none;align=center;verticalAlign=middle;whiteSpace=wrap;rounded=0;" parent="1" vertex="1">
          <mxGeometry x="-1095.0900000000001" y="538" width="251" height="30" as="geometry" />
        </mxCell>
        <mxCell id="F_2HRzWwkVnxhR09PAmx-72" value="" style="outlineConnect=0;dashed=0;verticalLabelPosition=bottom;verticalAlign=top;align=center;html=1;shape=mxgraph.aws3.automation;fillColor=#ffcd28;fontSize=14;strokeColor=#d79b00;gradientColor=#ffa500;" parent="1" vertex="1">
          <mxGeometry x="-1106" y="467.62000000000006" width="42" height="46" as="geometry" />
        </mxCell>
        <mxCell id="F_2HRzWwkVnxhR09PAmx-74" value="" style="outlineConnect=0;dashed=0;verticalLabelPosition=bottom;verticalAlign=top;align=center;html=1;shape=mxgraph.aws3.automation;fillColor=#1ba1e2;fontSize=14;fontColor=#ffffff;strokeColor=#006EAF;" parent="1" vertex="1">
          <mxGeometry x="-1106" y="586.9999999999995" width="42" height="46" as="geometry" />
        </mxCell>
        <mxCell id="F_2HRzWwkVnxhR09PAmx-80" value="" style="shape=flexArrow;endArrow=classic;html=1;rounded=0;fontSize=14;fillColor=#dae8fc;strokeColor=#6c8ebf;" parent="1" edge="1">
          <mxGeometry width="50" height="50" relative="1" as="geometry">
            <mxPoint x="-1224.3000000000002" y="551.9999999999999" as="sourcePoint" />
            <mxPoint x="-1186.3000000000002" y="551.9999999999999" as="targetPoint" />
          </mxGeometry>
        </mxCell>
        <mxCell id="F_2HRzWwkVnxhR09PAmx-83" value="Alert" style="text;html=1;strokeColor=none;fillColor=none;align=center;verticalAlign=middle;whiteSpace=wrap;rounded=0;fontSize=14;" parent="1" vertex="1">
          <mxGeometry x="-487" y="416.30999999999983" width="60" height="30" as="geometry" />
        </mxCell>
        <mxCell id="F_2HRzWwkVnxhR09PAmx-84" value="" style="verticalLabelPosition=bottom;html=1;verticalAlign=top;align=center;strokeColor=none;fillColor=#00BEF2;shape=mxgraph.azure.notification_topic;fontSize=14;" parent="1" vertex="1">
          <mxGeometry x="-555" y="412.9999999999997" width="50" height="50" as="geometry" />
        </mxCell>
        <mxCell id="F_2HRzWwkVnxhR09PAmx-85" value="" style="endArrow=none;dashed=1;html=1;rounded=0;fontSize=14;strokeWidth=1;" parent="1" edge="1">
          <mxGeometry width="50" height="50" relative="1" as="geometry">
            <mxPoint x="-1411" y="664" as="sourcePoint" />
            <mxPoint x="-1411" y="30" as="targetPoint" />
          </mxGeometry>
        </mxCell>
        <mxCell id="F_2HRzWwkVnxhR09PAmx-86" value="" style="endArrow=none;dashed=1;html=1;rounded=0;fontSize=14;strokeWidth=1;" parent="1" edge="1">
          <mxGeometry width="50" height="50" relative="1" as="geometry">
            <mxPoint x="-1177" y="661" as="sourcePoint" />
            <mxPoint x="-1177" y="31" as="targetPoint" />
          </mxGeometry>
        </mxCell>
        <mxCell id="F_2HRzWwkVnxhR09PAmx-87" value="" style="endArrow=none;dashed=1;html=1;rounded=0;fontSize=14;strokeWidth=1;" parent="1" edge="1">
          <mxGeometry width="50" height="50" relative="1" as="geometry">
            <mxPoint x="-768" y="664" as="sourcePoint" />
            <mxPoint x="-768" y="25.5" as="targetPoint" />
          </mxGeometry>
        </mxCell>
        <mxCell id="F_2HRzWwkVnxhR09PAmx-88" value="" style="endArrow=none;dashed=1;html=1;rounded=0;fontSize=14;strokeWidth=1;" parent="1" edge="1">
          <mxGeometry width="50" height="50" relative="1" as="geometry">
            <mxPoint x="-590" y="661" as="sourcePoint" />
            <mxPoint x="-590" y="23" as="targetPoint" />
          </mxGeometry>
        </mxCell>
        <mxCell id="F_2HRzWwkVnxhR09PAmx-91" value="" style="shape=flexArrow;endArrow=classic;html=1;rounded=0;fontSize=14;fillColor=#eeeeee;strokeColor=#36393d;" parent="1" edge="1">
          <mxGeometry width="50" height="50" relative="1" as="geometry">
            <mxPoint x="-1195" y="58" as="sourcePoint" />
            <mxPoint x="-1157" y="58" as="targetPoint" />
          </mxGeometry>
        </mxCell>
        <mxCell id="F_2HRzWwkVnxhR09PAmx-92" value="" style="shape=flexArrow;endArrow=classic;html=1;rounded=0;fontSize=14;fillColor=#eeeeee;strokeColor=#36393d;" parent="1" edge="1">
          <mxGeometry width="50" height="50" relative="1" as="geometry">
            <mxPoint x="-784" y="56.66" as="sourcePoint" />
            <mxPoint x="-746" y="56.66" as="targetPoint" />
          </mxGeometry>
        </mxCell>
        <mxCell id="F_2HRzWwkVnxhR09PAmx-93" value="" style="shape=flexArrow;endArrow=classic;html=1;rounded=0;fontSize=14;fillColor=#eeeeee;strokeColor=#36393d;" parent="1" edge="1">
          <mxGeometry width="50" height="50" relative="1" as="geometry">
            <mxPoint x="-606" y="53.16" as="sourcePoint" />
            <mxPoint x="-568" y="53.16" as="targetPoint" />
          </mxGeometry>
        </mxCell>
        <mxCell id="F_2HRzWwkVnxhR09PAmx-95" value="&lt;font color=&quot;#ffffff&quot; style=&quot;font-size: 20px;&quot;&gt;Producers&lt;/font&gt;" style="text;html=1;strokeColor=none;fillColor=none;align=center;verticalAlign=middle;whiteSpace=wrap;rounded=0;fontSize=14;" parent="1" vertex="1">
          <mxGeometry x="-1560" y="38.5" width="60" height="30" as="geometry" />
        </mxCell>
        <mxCell id="F_2HRzWwkVnxhR09PAmx-97" value="&lt;font color=&quot;#ffffff&quot; style=&quot;font-size: 20px;&quot;&gt;Transformation&lt;/font&gt;" style="text;html=1;strokeColor=none;fillColor=none;align=center;verticalAlign=middle;whiteSpace=wrap;rounded=0;fontSize=14;" parent="1" vertex="1">
          <mxGeometry x="-1004.43" y="41" width="60" height="30" as="geometry" />
        </mxCell>
        <mxCell id="F_2HRzWwkVnxhR09PAmx-99" value="&lt;font color=&quot;#ffffff&quot; style=&quot;font-size: 20px;&quot;&gt;&amp;nbsp;Collection&lt;/font&gt;" style="text;html=1;strokeColor=none;fillColor=none;align=center;verticalAlign=middle;whiteSpace=wrap;rounded=0;fontSize=14;" parent="1" vertex="1">
          <mxGeometry x="-1330.35" y="38.5" width="60" height="30" as="geometry" />
        </mxCell>
        <mxCell id="F_2HRzWwkVnxhR09PAmx-100" value="&lt;font color=&quot;#ffffff&quot; style=&quot;font-size: 20px;&quot;&gt;Storage&lt;/font&gt;" style="text;html=1;strokeColor=none;fillColor=none;align=center;verticalAlign=middle;whiteSpace=wrap;rounded=0;fontSize=14;" parent="1" vertex="1">
          <mxGeometry x="-707" y="41" width="60.35" height="30" as="geometry" />
        </mxCell>
        <mxCell id="F_2HRzWwkVnxhR09PAmx-102" value="&lt;span style=&quot;font-size: 20px;&quot;&gt;&lt;font color=&quot;#ffffff&quot;&gt;Visualization and Alert&lt;/font&gt;&lt;/span&gt;" style="text;html=1;strokeColor=none;fillColor=none;align=center;verticalAlign=middle;whiteSpace=wrap;rounded=0;fontSize=14;" parent="1" vertex="1">
          <mxGeometry x="-559" y="38.5" width="142" height="30" as="geometry" />
        </mxCell>
        <mxCell id="F_2HRzWwkVnxhR09PAmx-104" value="" style="verticalLabelPosition=bottom;html=1;verticalAlign=top;align=center;strokeColor=none;fillColor=#00BEF2;shape=mxgraph.azure.cloud_service;fontSize=20;fontColor=#FFFFFF;" parent="1" vertex="1">
          <mxGeometry x="-1621.25" y="398.56" width="62.5" height="50.5" as="geometry" />
        </mxCell>
        <mxCell id="F_2HRzWwkVnxhR09PAmx-105" value="&lt;font style=&quot;font-size: 12px;&quot; color=&quot;#000000&quot;&gt;Service on RDFE&lt;/font&gt;" style="text;html=1;strokeColor=none;fillColor=none;align=center;verticalAlign=middle;whiteSpace=wrap;rounded=0;fontSize=20;fontColor=#FFFFFF;" parent="1" vertex="1">
          <mxGeometry x="-1554.75" y="408.81" width="102" height="30" as="geometry" />
        </mxCell>
        <mxCell id="F_2HRzWwkVnxhR09PAmx-106" value="" style="shape=image;html=1;verticalAlign=top;verticalLabelPosition=bottom;labelBackgroundColor=#ffffff;imageAspect=0;aspect=fixed;image=https://cdn1.iconfinder.com/data/icons/unicons-line-vol-3/24/docker-128.png;fontSize=12;fontColor=#000000;" parent="1" vertex="1">
          <mxGeometry x="-1624" y="472" width="76" height="76" as="geometry" />
        </mxCell>
        <mxCell id="F_2HRzWwkVnxhR09PAmx-107" value="&lt;font style=&quot;font-size: 12px;&quot; color=&quot;#000000&quot;&gt;Service on COSMIC&lt;/font&gt;" style="text;html=1;strokeColor=none;fillColor=none;align=center;verticalAlign=middle;whiteSpace=wrap;rounded=0;fontSize=20;fontColor=#FFFFFF;" parent="1" vertex="1">
          <mxGeometry x="-1559.25" y="495" width="121" height="30" as="geometry" />
        </mxCell>
        <mxCell id="F_2HRzWwkVnxhR09PAmx-109" value="" style="sketch=0;html=1;dashed=0;whitespace=wrap;fillColor=#2875E2;strokeColor=#ffffff;points=[[0.005,0.63,0],[0.1,0.2,0],[0.9,0.2,0],[0.5,0,0],[0.995,0.63,0],[0.72,0.99,0],[0.5,1,0],[0.28,0.99,0]];verticalLabelPosition=bottom;align=center;verticalAlign=top;shape=mxgraph.kubernetes.icon;prIcon=api;fontSize=12;fontColor=#000000;" parent="1" vertex="1">
          <mxGeometry x="-1615.5" y="577" width="50" height="48" as="geometry" />
        </mxCell>
        <mxCell id="F_2HRzWwkVnxhR09PAmx-110" value="COSMIC platform" style="text;html=1;strokeColor=none;fillColor=none;align=center;verticalAlign=middle;whiteSpace=wrap;rounded=0;fontSize=12;fontColor=#000000;" parent="1" vertex="1">
          <mxGeometry x="-1558.75" y="590" width="111" height="30" as="geometry" />
        </mxCell>
        <mxCell id="F_2HRzWwkVnxhR09PAmx-112" value="" style="outlineConnect=0;dashed=0;verticalLabelPosition=bottom;verticalAlign=top;align=center;html=1;shape=mxgraph.aws3.automation;fillColor=#ffcd28;fontSize=14;strokeColor=#d79b00;gradientColor=#ffa500;" parent="1" vertex="1">
          <mxGeometry x="-1106" y="527" width="42" height="46" as="geometry" />
        </mxCell>
        <mxCell id="F_2HRzWwkVnxhR09PAmx-114" value="Traffic Share Automation" style="text;html=1;strokeColor=none;fillColor=none;align=center;verticalAlign=middle;whiteSpace=wrap;rounded=0;" parent="1" vertex="1">
          <mxGeometry x="-1102.7" y="475.62" width="251" height="30" as="geometry" />
        </mxCell>
        <mxCell id="F_2HRzWwkVnxhR09PAmx-115" value="" style="shape=flexArrow;endArrow=classic;html=1;rounded=0;fontSize=14;fillColor=#dae8fc;strokeColor=#6c8ebf;" parent="1" edge="1">
          <mxGeometry width="50" height="50" relative="1" as="geometry">
            <mxPoint x="-1229.95" y="239.49999999999994" as="sourcePoint" />
            <mxPoint x="-1191.95" y="239.49999999999994" as="targetPoint" />
          </mxGeometry>
        </mxCell>
        <mxCell id="F_2HRzWwkVnxhR09PAmx-116" value="" style="shape=curlyBracket;whiteSpace=wrap;html=1;rounded=1;flipH=1;size=0.5;" parent="1" vertex="1">
          <mxGeometry x="-1438.25" y="430" width="23" height="78.25" as="geometry" />
        </mxCell>
        <mxCell id="F_2HRzWwkVnxhR09PAmx-118" value="" style="outlineConnect=0;dashed=0;verticalLabelPosition=bottom;verticalAlign=top;align=center;html=1;shape=mxgraph.aws3.automation;fillColor=#60a917;fontSize=14;strokeColor=#2D7600;fontColor=#ffffff;" parent="1" vertex="1">
          <mxGeometry x="-1095.5" y="249.39000000000004" width="42" height="46" as="geometry" />
        </mxCell>
        <mxCell id="F_2HRzWwkVnxhR09PAmx-127" value="Data Query" style="text;html=1;strokeColor=none;fillColor=none;align=center;verticalAlign=middle;whiteSpace=wrap;rounded=0;" parent="1" vertex="1">
          <mxGeometry x="-1150.0000000000002" y="145.24000000000012" width="54.91" height="30" as="geometry" />
        </mxCell>
        <mxCell id="F_2HRzWwkVnxhR09PAmx-128" value="Data Inspection" style="text;html=1;strokeColor=none;fillColor=none;align=center;verticalAlign=middle;whiteSpace=wrap;rounded=0;" parent="1" vertex="1">
          <mxGeometry x="-1014.65" y="146.0000000000001" width="54.91" height="30" as="geometry" />
        </mxCell>
        <mxCell id="F_2HRzWwkVnxhR09PAmx-129" value="Data Publishing" style="text;html=1;strokeColor=none;fillColor=none;align=center;verticalAlign=middle;whiteSpace=wrap;rounded=0;" parent="1" vertex="1">
          <mxGeometry x="-878.84" y="147.69" width="54.91" height="30" as="geometry" />
        </mxCell>
        <mxCell id="F_2HRzWwkVnxhR09PAmx-130" value="" style="shape=flexArrow;endArrow=classic;html=1;rounded=0;fontSize=14;fillColor=#dae8fc;strokeColor=#6c8ebf;" parent="1" edge="1">
          <mxGeometry width="50" height="50" relative="1" as="geometry">
            <mxPoint x="-935.8400000000001" y="162.18999999999994" as="sourcePoint" />
            <mxPoint x="-897.8400000000001" y="162.18999999999994" as="targetPoint" />
          </mxGeometry>
        </mxCell>
        <mxCell id="F_2HRzWwkVnxhR09PAmx-131" value="" style="shape=flexArrow;endArrow=classic;html=1;rounded=0;fontSize=14;fillColor=#dae8fc;strokeColor=#6c8ebf;" parent="1" edge="1">
          <mxGeometry width="50" height="50" relative="1" as="geometry">
            <mxPoint x="-1075.8400000000001" y="162.1900000000004" as="sourcePoint" />
            <mxPoint x="-1037.8400000000001" y="162.1900000000004" as="targetPoint" />
          </mxGeometry>
        </mxCell>
        <mxCell id="F_2HRzWwkVnxhR09PAmx-132" value="" style="shape=curlyBracket;whiteSpace=wrap;html=1;rounded=1;flipH=1;fontSize=14;rotation=90;fillColor=#dae8fc;strokeColor=#6c8ebf;" parent="1" vertex="1">
          <mxGeometry x="-997.2" y="58.379999999999995" width="20" height="268.62" as="geometry" />
        </mxCell>
        <mxCell id="F_2HRzWwkVnxhR09PAmx-135" value="" style="shape=flexArrow;endArrow=classic;html=1;rounded=0;fontSize=14;fillColor=#dae8fc;strokeColor=#6c8ebf;" parent="1" edge="1">
          <mxGeometry width="50" height="50" relative="1" as="geometry">
            <mxPoint x="-1095.09" y="400.8900000000003" as="sourcePoint" />
            <mxPoint x="-1057.09" y="400.8900000000003" as="targetPoint" />
          </mxGeometry>
        </mxCell>
        <mxCell id="F_2HRzWwkVnxhR09PAmx-138" value="MetaData Query" style="text;html=1;strokeColor=none;fillColor=none;align=center;verticalAlign=middle;whiteSpace=wrap;rounded=0;" parent="1" vertex="1">
          <mxGeometry x="-1152" y="388" width="55" height="30" as="geometry" />
        </mxCell>
        <mxCell id="F_2HRzWwkVnxhR09PAmx-139" value="" style="verticalLabelPosition=bottom;html=1;verticalAlign=top;align=center;strokeColor=none;fillColor=#00BEF2;shape=mxgraph.azure.storage;pointerEvents=1;fontSize=12;fontColor=#000000;" parent="1" vertex="1">
          <mxGeometry x="-751" y="199.5" width="50" height="40" as="geometry" />
        </mxCell>
        <mxCell id="F_2HRzWwkVnxhR09PAmx-141" value="Metadata Producer" style="text;html=1;strokeColor=none;fillColor=none;align=center;verticalAlign=middle;whiteSpace=wrap;rounded=0;fontSize=12;fontColor=#000000;" parent="1" vertex="1">
          <mxGeometry x="-1585" y="88" width="118" height="30" as="geometry" />
        </mxCell>
        <mxCell id="F_2HRzWwkVnxhR09PAmx-142" value="Data Producer" style="text;html=1;strokeColor=none;fillColor=none;align=center;verticalAlign=middle;whiteSpace=wrap;rounded=0;fontSize=12;fontColor=#000000;" parent="1" vertex="1">
          <mxGeometry x="-1579.8200000000002" y="633" width="99.65" height="30" as="geometry" />
        </mxCell>
        <mxCell id="F_2HRzWwkVnxhR09PAmx-143" value="Metadata Collection" style="text;html=1;strokeColor=none;fillColor=none;align=center;verticalAlign=middle;whiteSpace=wrap;rounded=0;fontSize=12;fontColor=#000000;" parent="1" vertex="1">
          <mxGeometry x="-1359.35" y="86" width="118" height="30" as="geometry" />
        </mxCell>
        <mxCell id="F_2HRzWwkVnxhR09PAmx-144" value="Data Collection" style="text;html=1;strokeColor=none;fillColor=none;align=center;verticalAlign=middle;whiteSpace=wrap;rounded=0;fontSize=12;fontColor=#000000;" parent="1" vertex="1">
          <mxGeometry x="-1359.35" y="634" width="118" height="30" as="geometry" />
        </mxCell>
        <mxCell id="F_2HRzWwkVnxhR09PAmx-145" value="Metadata Transformation" style="text;html=1;strokeColor=none;fillColor=none;align=center;verticalAlign=middle;whiteSpace=wrap;rounded=0;fontSize=12;fontColor=#000000;" parent="1" vertex="1">
          <mxGeometry x="-1056.8" y="88" width="159.2" height="30" as="geometry" />
        </mxCell>
        <mxCell id="F_2HRzWwkVnxhR09PAmx-146" value="Data Tansformation" style="text;html=1;strokeColor=none;fillColor=none;align=center;verticalAlign=middle;whiteSpace=wrap;rounded=0;fontSize=12;fontColor=#000000;" parent="1" vertex="1">
          <mxGeometry x="-1046.1999999999998" y="640" width="118" height="30" as="geometry" />
        </mxCell>
        <mxCell id="F_2HRzWwkVnxhR09PAmx-150" value="&lt;b&gt;&lt;font style=&quot;font-size: 12px;&quot;&gt;1&lt;/font&gt;&lt;/b&gt;" style="text;html=1;align=center;verticalAlign=middle;whiteSpace=wrap;rounded=0;fontSize=12;" parent="1" vertex="1">
          <mxGeometry x="-1648" y="337" width="60" height="30" as="geometry" />
        </mxCell>
        <mxCell id="F_2HRzWwkVnxhR09PAmx-151" value="&lt;b&gt;2&lt;/b&gt;" style="text;html=1;align=center;verticalAlign=middle;whiteSpace=wrap;rounded=0;fontSize=12;" parent="1" vertex="1">
          <mxGeometry x="-1412" y="336.95" width="60" height="30" as="geometry" />
        </mxCell>
        <mxCell id="F_2HRzWwkVnxhR09PAmx-153" value="&lt;b&gt;3&lt;/b&gt;" style="text;html=1;align=center;verticalAlign=middle;whiteSpace=wrap;rounded=0;fontSize=12;" parent="1" vertex="1">
          <mxGeometry x="-1177" y="337" width="60" height="30" as="geometry" />
        </mxCell>
        <mxCell id="F_2HRzWwkVnxhR09PAmx-154" value="&lt;b&gt;4&lt;/b&gt;" style="text;html=1;align=center;verticalAlign=middle;whiteSpace=wrap;rounded=0;fontSize=12;" parent="1" vertex="1">
          <mxGeometry x="-767" y="336.95" width="60" height="30" as="geometry" />
        </mxCell>
        <mxCell id="F_2HRzWwkVnxhR09PAmx-155" value="&lt;b&gt;5&lt;/b&gt;" style="text;html=1;align=center;verticalAlign=middle;whiteSpace=wrap;rounded=0;fontSize=12;" parent="1" vertex="1">
          <mxGeometry x="-1645" y="641" width="60" height="30" as="geometry" />
        </mxCell>
        <mxCell id="F_2HRzWwkVnxhR09PAmx-156" value="&lt;b&gt;6&lt;/b&gt;" style="text;html=1;align=center;verticalAlign=middle;whiteSpace=wrap;rounded=0;fontSize=12;" parent="1" vertex="1">
          <mxGeometry x="-1412" y="640" width="60" height="30" as="geometry" />
        </mxCell>
        <mxCell id="F_2HRzWwkVnxhR09PAmx-157" value="&lt;b&gt;7&lt;/b&gt;" style="text;html=1;align=center;verticalAlign=middle;whiteSpace=wrap;rounded=0;fontSize=12;" parent="1" vertex="1">
          <mxGeometry x="-1177" y="640" width="60" height="30" as="geometry" />
        </mxCell>
        <mxCell id="F_2HRzWwkVnxhR09PAmx-158" value="&lt;b&gt;8&lt;/b&gt;" style="text;html=1;align=center;verticalAlign=middle;whiteSpace=wrap;rounded=0;fontSize=12;" parent="1" vertex="1">
          <mxGeometry x="-767" y="640" width="60" height="30" as="geometry" />
        </mxCell>
        <mxCell id="F_2HRzWwkVnxhR09PAmx-159" value="&lt;b&gt;9&lt;/b&gt;" style="text;html=1;align=center;verticalAlign=middle;whiteSpace=wrap;rounded=0;fontSize=12;" parent="1" vertex="1">
          <mxGeometry x="-590" y="641" width="60" height="30" as="geometry" />
        </mxCell>
        <mxCell id="F_2HRzWwkVnxhR09PAmx-160" value="Metadata Storage" style="text;html=1;strokeColor=none;fillColor=none;align=center;verticalAlign=middle;whiteSpace=wrap;rounded=0;fontSize=12;fontColor=#000000;" parent="1" vertex="1">
          <mxGeometry x="-756.42" y="88" width="159.2" height="30" as="geometry" />
        </mxCell>
        <mxCell id="F_2HRzWwkVnxhR09PAmx-161" value="Data Storage" style="text;html=1;strokeColor=none;fillColor=none;align=center;verticalAlign=middle;whiteSpace=wrap;rounded=0;fontSize=12;fontColor=#000000;" parent="1" vertex="1">
          <mxGeometry x="-762" y="633" width="159.2" height="30" as="geometry" />
        </mxCell>
        <mxCell id="F_2HRzWwkVnxhR09PAmx-162" value="Azure Storage" style="text;html=1;strokeColor=none;fillColor=none;align=center;verticalAlign=middle;whiteSpace=wrap;rounded=0;" parent="1" vertex="1">
          <mxGeometry x="-715.09" y="204.50000000000023" width="125.09" height="30" as="geometry" />
        </mxCell>
        <mxCell id="PrQSvnIHRwTSQ4Z2_6oj-2" value="" style="shadow=0;dashed=0;html=1;strokeColor=none;fillColor=#4495D1;labelPosition=center;verticalLabelPosition=bottom;verticalAlign=top;align=center;outlineConnect=0;shape=mxgraph.veeam.portal_admin;" vertex="1" parent="1">
          <mxGeometry x="-1609.2" y="204.5" width="47.2" height="49.19" as="geometry" />
        </mxCell>
        <mxCell id="PrQSvnIHRwTSQ4Z2_6oj-3" value="COSMIC Onboarding Team" style="text;html=1;strokeColor=none;fillColor=none;align=center;verticalAlign=middle;whiteSpace=wrap;rounded=0;fontSize=12;" vertex="1" parent="1">
          <mxGeometry x="-1555.75" y="217.50000000000006" width="114" height="30" as="geometry" />
        </mxCell>
      </root>
    </mxGraphModel>
  </diagram>
</mxfile>
